<?xml version="1.0" standalone="no"?>
<!DOCTYPE svg PUBLIC "-//W3C//DTD SVG 20010904//EN"
 "http://www.w3.org/TR/2001/REC-SVG-20010904/DTD/svg10.dtd">
<svg version="1.0" xmlns="http://www.w3.org/2000/svg"
 width="16.000000pt" height="16.000000pt" viewBox="0 0 16.000000 16.000000"
 preserveAspectRatio="xMidYMid meet">
<metadata>
Created by potrace 1.11, written by Peter Selinger 2001-2013
</metadata>
<g transform="translate(0.000000,16.000000) scale(0.002893,-0.002893)"
fill="#000000" stroke="none">
<path d="M1063 5513 c3 -4 -2 -17 -10 -28 -15 -20 -15 -20 -10 3 3 12 1 20 -4
16 -5 -3 -9 -12 -9 -20 0 -9 -5 -12 -12 -8 -8 5 -9 2 -4 -11 5 -15 4 -16 -9
-5 -9 7 -15 9 -14 4 1 -5 1 -15 0 -23 -1 -11 -4 -11 -18 0 -15 13 -15 12 -4
-9 10 -19 9 -23 -4 -29 -13 -5 -14 -7 -3 -14 10 -7 9 -9 -4 -9 -9 0 -20 -5
-24 -12 -4 -6 -3 -8 3 -5 6 4 11 -4 11 -18 0 -14 -4 -28 -9 -31 -5 -3 -6 1 -3
9 3 8 -3 20 -13 28 -17 13 -17 13 -4 -4 13 -16 13 -20 0 -28 -8 -5 -9 -9 -4
-9 12 0 13 -55 2 -66 -4 -4 -1 -14 5 -21 7 -8 11 -31 10 -50 -2 -25 1 -33 9
-27 8 4 9 3 5 -5 -6 -8 -12 -9 -20 -2 -9 8 -13 7 -13 -4 0 -8 4 -12 9 -9 4 3
8 0 8 -6 0 -6 6 -8 13 -4 6 4 2 -3 -10 -14 -12 -12 -20 -29 -18 -39 2 -10 4
-18 5 -18 7 0 6 -36 -1 -41 -6 -4 -6 -10 0 -17 10 -13 11 -17 11 -43 0 -9 5
-12 12 -8 7 4 8 3 4 -5 -4 -6 -11 -9 -14 -7 -4 2 -7 -13 -6 -35 0 -22 -3 -42
-8 -45 -5 -3 -3 -13 3 -21 7 -8 12 -31 11 -50 -2 -25 1 -33 9 -27 8 4 9 3 5
-5 -6 -8 -12 -9 -20 -2 -9 8 -13 7 -13 -4 0 -8 4 -12 9 -9 4 3 8 0 8 -6 0 -6
6 -8 13 -4 6 4 2 -3 -10 -14 -12 -12 -20 -29 -18 -39 2 -10 4 -18 5 -18 7 0 6
-36 -1 -41 -6 -3 -5 -12 2 -21 7 -8 12 -31 11 -50 -2 -25 1 -33 9 -27 8 4 9 3
5 -5 -6 -8 -12 -9 -20 -2 -9 8 -13 7 -13 -4 0 -8 4 -12 9 -9 4 3 8 0 8 -6 0
-6 6 -8 13 -4 6 4 2 -3 -10 -14 -12 -12 -20 -29 -18 -39 2 -10 4 -18 5 -18 7
0 6 -36 -1 -41 -6 -4 -6 -10 0 -17 10 -13 11 -17 11 -43 0 -9 5 -12 12 -8 7 4
8 3 4 -5 -4 -6 -11 -9 -15 -7 -4 3 -5 -8 -3 -24 3 -19 9 -27 16 -23 6 3 1 -4
-11 -15 -12 -12 -20 -29 -18 -39 2 -10 4 -18 5 -18 7 0 6 -36 -1 -41 -6 -3 -5
-11 2 -20 18 -22 20 -94 2 -87 -9 4 -11 0 -7 -11 3 -9 11 -13 18 -9 6 3 8 3 4
-2 -4 -4 -3 -14 3 -22 9 -10 8 -13 -1 -13 -9 0 -9 -4 1 -17 10 -11 10 -14 2
-9 -8 4 -13 1 -13 -9 0 -10 5 -14 13 -9 6 4 2 -3 -10 -14 -12 -12 -20 -29 -18
-39 2 -10 4 -18 5 -18 7 0 6 -36 -1 -41 -6 -3 -5 -12 2 -21 7 -8 12 -31 11
-50 -2 -25 1 -33 9 -27 8 4 9 3 5 -5 -6 -8 -12 -9 -20 -2 -9 8 -13 7 -13 -4 0
-8 4 -12 9 -9 4 3 8 0 8 -6 0 -6 6 -8 13 -5 6 4 3 0 -7 -9 -11 -9 -20 -30 -21
-51 -1 -24 2 -32 9 -25 5 5 14 10 19 10 5 0 1 -7 -8 -16 -11 -12 -13 -20 -6
-27 8 -8 5 -17 -9 -32 -16 -17 -17 -22 -6 -22 8 0 12 5 9 11 -4 6 1 5 10 -3
16 -13 14 -36 -3 -26 -5 3 -12 0 -16 -6 -4 -8 -3 -9 4 -5 7 4 12 2 12 -4 0 -6
5 -8 12 -4 7 4 8 3 4 -5 -4 -6 -11 -9 -16 -6 -4 3 -10 -4 -13 -15 -3 -13 -1
-18 6 -13 6 4 8 0 4 -10 -3 -9 -1 -19 4 -23 7 -4 2 -15 -10 -28 -16 -17 -18
-23 -7 -23 8 0 12 5 9 11 -4 6 1 5 10 -3 16 -13 14 -36 -3 -26 -5 3 -12 0 -16
-6 -4 -8 -3 -9 4 -5 7 4 12 2 12 -4 0 -6 5 -8 12 -4 7 4 8 3 4 -5 -4 -6 -12
-9 -17 -5 -6 3 -8 -5 -5 -20 3 -14 0 -28 -5 -32 -6 -3 -5 -11 2 -21 7 -8 12
-31 11 -50 -2 -25 1 -33 9 -27 8 4 9 3 5 -5 -6 -8 -12 -9 -20 -2 -9 8 -13 7
-13 -4 0 -8 4 -12 9 -9 4 3 8 0 8 -6 0 -6 6 -8 13 -4 6 4 2 -3 -10 -14 -12
-12 -20 -29 -18 -39 2 -10 4 -18 5 -18 7 0 6 -36 -1 -41 -6 -3 -5 -12 2 -21 7
-8 12 -31 11 -50 -2 -25 1 -33 9 -27 8 4 9 3 5 -5 -6 -8 -12 -9 -20 -2 -9 8
-13 7 -13 -4 0 -8 4 -12 9 -9 4 3 8 0 8 -6 0 -6 6 -8 13 -4 6 4 2 -3 -10 -14
-12 -12 -20 -29 -18 -39 2 -10 4 -18 5 -18 7 0 6 -36 -1 -41 -6 -3 -5 -11 2
-20 6 -7 15 -11 20 -8 5 3 9 0 9 -5 0 -6 -6 -11 -14 -11 -8 0 -18 -5 -22 -12
-4 -7 -3 -8 4 -4 7 4 12 2 12 -4 0 -6 5 -8 12 -4 7 4 8 3 4 -5 -4 -6 -12 -9
-17 -6 -5 3 -6 -1 -3 -9 3 -8 0 -24 -6 -36 -10 -18 -9 -21 1 -15 9 6 11 3 6
-8 -3 -9 -1 -19 4 -23 7 -4 2 -15 -10 -28 -16 -17 -18 -23 -7 -23 8 0 12 5 9
11 -4 6 1 5 10 -3 16 -13 14 -36 -3 -26 -5 3 -12 0 -16 -6 -4 -8 -3 -9 4 -5 7
4 12 2 12 -4 0 -6 5 -8 12 -4 7 4 8 3 4 -5 -4 -6 -11 -9 -16 -6 -4 3 -10 -4
-13 -15 -3 -13 -1 -18 6 -13 6 4 8 0 4 -10 -3 -9 -1 -19 4 -23 7 -4 2 -15 -10
-28 -16 -17 -18 -23 -7 -23 8 0 12 5 9 11 -4 6 1 5 10 -3 16 -13 14 -36 -3
-26 -5 3 -12 0 -16 -6 -4 -8 -3 -9 4 -5 7 4 12 2 12 -4 0 -6 5 -8 12 -4 7 4 8
3 4 -5 -4 -6 -11 -9 -16 -6 -5 3 -12 0 -16 -6 -4 -8 -3 -9 4 -5 7 4 12 2 12
-4 0 -6 6 -8 13 -4 6 4 2 -3 -10 -14 -12 -12 -20 -29 -18 -39 2 -10 4 -18 5
-18 7 0 6 -36 -1 -41 -6 -3 -5 -11 2 -20 18 -22 20 -94 2 -87 -9 4 -11 0 -7
-11 3 -9 11 -13 18 -9 6 3 8 3 4 -2 -4 -4 -3 -14 3 -22 9 -10 8 -13 -1 -13 -9
0 -9 -4 1 -17 10 -11 10 -14 2 -9 -8 4 -13 1 -13 -9 0 -10 5 -14 12 -9 7 4 3
-3 -9 -14 -12 -12 -20 -29 -18 -39 2 -10 4 -18 5 -18 7 0 6 -36 -1 -41 -6 -3
-5 -12 2 -21 7 -8 12 -31 11 -50 -2 -25 1 -33 9 -27 8 4 9 3 5 -5 -6 -8 -12
-9 -20 -2 -9 8 -13 7 -13 -4 0 -8 4 -12 9 -9 4 3 8 0 8 -6 0 -6 6 -8 13 -4 6
4 2 -3 -10 -14 -12 -12 -20 -29 -18 -39 2 -10 4 -18 5 -18 7 0 6 -36 -1 -41
-6 -3 -5 -12 2 -21 7 -8 12 -31 11 -50 -2 -25 1 -33 9 -27 8 4 9 3 5 -5 -6 -8
-12 -9 -20 -2 -9 8 -13 7 -13 -4 0 -8 4 -12 9 -9 4 3 8 0 8 -6 0 -6 6 -8 12
-4 7 4 3 -3 -9 -14 -12 -12 -20 -29 -18 -39 2 -10 4 -18 5 -18 7 0 6 -36 -1
-41 -6 -3 -5 -12 2 -21 7 -8 12 -31 11 -50 -2 -25 1 -33 9 -27 8 4 9 3 5 -5
-6 -8 -12 -9 -20 -2 -9 8 -13 7 -13 -4 0 -8 4 -12 9 -9 4 3 8 0 8 -6 0 -6 6
-8 13 -4 6 4 2 -3 -10 -14 -12 -12 -20 -29 -18 -39 2 -10 4 -18 5 -18 7 0 6
-36 -1 -41 -6 -4 -6 -10 0 -17 10 -13 11 -17 11 -43 0 -9 5 -12 12 -8 7 4 8 3
4 -5 -4 -6 -11 -9 -14 -7 -4 2 -7 -13 -6 -35 0 -22 -3 -42 -8 -45 -4 -3 1 -18
12 -34 14 -20 17 -31 9 -36 -8 -4 -7 -9 2 -16 10 -7 8 -8 -8 -3 -17 5 -21 2
-18 -12 2 -10 4 -22 4 -26 1 -5 7 -5 14 -1 7 5 6 1 -3 -10 -16 -21 -23 -49 -9
-40 5 3 9 0 9 -6 0 -6 5 -8 12 -4 7 4 8 3 4 -5 -4 -6 -11 -9 -15 -7 -4 3 -5
-8 -3 -24 2 -17 9 -27 14 -24 6 4 3 -5 -6 -18 -9 -14 -13 -29 -9 -33 5 -5 -1
-3 -11 5 -17 13 -18 13 -11 1 6 -11 4 -13 -7 -8 -9 3 -21 0 -28 -6 -9 -9 -11
-9 -7 -1 4 7 0 14 -8 17 -9 4 -12 1 -8 -9 4 -12 1 -13 -20 -5 -17 7 -28 6 -37
-2 -10 -9 -11 -9 -6 0 3 6 2 14 -3 17 -5 3 -12 -1 -15 -9 -4 -12 -10 -13 -24
-6 -13 7 -23 6 -32 -2 -10 -9 -11 -9 -6 0 3 6 2 14 -3 17 -5 3 -12 -1 -15 -9
-4 -12 -10 -14 -25 -5 -11 5 -22 6 -25 2 -3 -4 -21 -6 -40 -4 -20 2 -34 7 -31
11 2 4 -2 8 -9 8 -9 0 -12 -7 -8 -16 5 -14 3 -14 -10 -3 -9 7 -19 9 -22 4 -2
-4 -21 -6 -40 -4 -20 2 -34 7 -31 11 2 4 -2 8 -9 8 -9 0 -12 -7 -8 -16 5 -14
3 -14 -10 -3 -9 7 -19 9 -22 4 -2 -4 -21 -6 -40 -4 -20 2 -33 8 -30 13 3 5 1
9 -4 9 -6 0 -13 -8 -16 -17 -5 -11 -10 -13 -14 -7 -9 13 -45 27 -38 15 3 -5
-1 -11 -9 -15 -8 -3 -15 -1 -15 4 0 6 -5 10 -11 10 -5 0 -7 -5 -3 -11 4 -8 0
-8 -15 0 -14 8 -21 8 -21 1 0 -5 -8 -10 -17 -10 -15 0 -16 2 -3 10 8 5 10 10
4 10 -6 0 -18 -8 -25 -17 -8 -10 -9 -14 -2 -10 6 4 14 3 17 -1 3 -5 -9 -9 -27
-9 -25 1 -31 -3 -29 -16 2 -10 -1 -17 -5 -16 -20 3 -27 -2 -13 -11 13 -8 13
-10 -2 -11 -32 -3 -36 -4 -45 -13 -4 -5 -3 -6 3 -3 7 4 11 -3 11 -18 0 -14 -4
-25 -9 -25 -5 0 -6 5 -3 10 3 6 -1 10 -10 10 -13 0 -14 -4 -5 -20 6 -11 7 -20
3 -20 -5 0 -8 -118 -8 -263 l0 -262 2750 0 2750 0 0 260 c0 143 -1 270 -3 282
-3 15 -11 23 -24 23 -10 0 -17 4 -13 10 3 5 13 7 23 4 14 -5 14 -4 2 4 -8 6
-18 8 -22 6 -4 -3 -8 0 -8 6 0 6 -5 8 -12 4 -9 -5 -9 -2 1 9 9 12 10 17 2 17
-7 0 -9 5 -5 12 4 7 3 8 -4 4 -15 -9 -54 12 -47 25 4 5 1 8 -7 7 -7 -2 -12 3
-11 9 2 7 -2 13 -7 13 -13 0 -13 -17 0 -25 6 -3 10 -12 10 -18 0 -7 -12 2 -26
18 -14 17 -23 25 -20 18 4 -7 -1 -10 -11 -8 -10 2 -35 4 -56 4 -21 1 -36 5
-33 9 3 5 -1 9 -8 9 -9 0 -12 -7 -8 -16 5 -14 3 -14 -10 -3 -9 7 -19 9 -22 4
-2 -4 -21 -6 -40 -4 -20 2 -34 7 -31 11 2 4 -2 8 -9 8 -9 0 -12 -7 -8 -16 5
-14 3 -14 -10 -3 -9 7 -19 9 -22 4 -2 -4 -21 -6 -40 -4 -20 2 -34 7 -31 11 2
4 -2 8 -9 8 -9 0 -12 -7 -8 -16 5 -13 3 -14 -10 -4 -8 7 -18 10 -22 6 -10 -11
-79 -3 -95 10 -11 9 -13 9 -8 1 4 -7 -3 -14 -18 -16 -13 -3 -22 -1 -19 3 8 13
-10 11 -25 -4 -10 -8 -12 -8 -7 0 3 6 2 14 -3 17 -5 3 -12 -1 -15 -9 -4 -12
-10 -13 -24 -6 -13 7 -23 6 -32 -2 -10 -9 -11 -9 -6 0 3 6 2 14 -3 17 -5 3
-12 -1 -15 -10 -4 -11 -10 -12 -22 -6 -9 5 -26 7 -38 4 -19 -5 -20 -4 -6 13
14 17 14 18 -9 6 -18 -10 -22 -10 -16 -1 4 7 1 17 -6 22 -11 8 -10 9 3 5 9 -3
22 2 30 11 11 15 11 16 -3 4 -14 -11 -16 -9 -16 13 0 13 3 22 8 19 5 -3 5 5 0
18 -4 13 -7 34 -4 47 3 21 1 22 -13 10 -16 -13 -16 -12 -4 8 8 12 17 20 20 18
4 -2 7 2 7 10 0 11 -5 12 -21 3 -16 -8 -14 -3 9 23 17 18 23 28 14 21 -16 -12
-29 -7 -29 10 0 5 6 6 13 2 7 -5 6 0 -3 11 -9 11 -10 16 -2 11 6 -4 12 -2 12
3 0 6 -4 11 -10 11 -5 0 -10 4 -10 10 0 5 8 7 18 4 16 -5 16 -5 0 6 -10 6 -15
17 -11 26 5 13 7 13 14 2 6 -9 8 -6 6 9 -1 18 -4 20 -22 11 -15 -8 -12 -2 10
23 17 18 23 28 14 21 -16 -12 -29 -7 -29 10 0 5 6 6 13 2 7 -5 6 0 -3 11 -9
11 -10 16 -2 11 6 -4 12 -2 12 3 0 6 -4 11 -10 11 -5 0 -10 4 -10 10 0 5 8 7
18 4 14 -5 15 -4 2 5 -16 10 -19 48 -6 69 4 7 2 12 -6 12 -10 0 -10 2 1 9 7 5
11 15 9 22 -3 8 -1 26 3 41 6 22 3 31 -14 44 l-22 16 23 -7 c13 -4 22 -2 22 5
0 6 -4 8 -10 5 -6 -3 -10 -2 -10 4 0 6 -8 8 -17 5 -17 -5 -17 -5 0 6 9 6 21 9
26 5 5 -3 4 8 -2 24 -6 17 -15 27 -21 24 -5 -3 -6 -1 -2 6 4 6 11 9 16 6 5 -3
12 0 16 6 4 7 3 9 -4 5 -6 -3 -13 -2 -17 4 -3 5 2 10 12 11 14 0 14 2 -4 9
-13 5 -23 12 -23 15 0 4 5 3 10 0 6 -3 10 0 10 7 0 9 3 9 10 -2 7 -12 9 -10 7
7 -1 18 -4 20 -22 11 -15 -8 -12 -2 10 23 17 18 23 28 14 21 -16 -12 -29 -7
-29 10 0 5 6 6 13 2 7 -5 6 0 -3 11 -9 11 -10 16 -2 11 6 -4 12 -2 12 3 0 6
-4 11 -10 11 -5 0 -10 4 -10 10 0 5 8 7 18 4 16 -5 16 -5 0 6 -10 6 -15 17
-11 26 5 13 7 13 14 2 6 -9 8 -6 6 9 -1 18 -4 20 -22 11 -15 -8 -12 -2 10 23
17 18 23 28 14 21 -16 -12 -29 -7 -29 10 0 5 6 6 13 2 7 -5 6 0 -3 11 -9 11
-10 16 -2 11 6 -4 12 -2 12 3 0 6 -4 11 -10 11 -5 0 -10 4 -10 10 0 5 8 7 18
4 14 -5 15 -4 2 5 -16 10 -19 48 -6 69 4 7 2 12 -6 12 -10 0 -10 2 1 9 7 5 11
15 9 22 -3 8 -1 26 3 41 6 22 3 31 -14 44 l-22 16 23 -7 c13 -4 22 -2 22 5 0
6 -4 8 -10 5 -6 -3 -10 -2 -10 4 0 6 -8 8 -18 5 -16 -5 -16 -5 1 6 9 6 21 9
26 5 5 -3 4 8 -2 24 -6 17 -15 27 -21 24 -5 -3 -6 -1 -2 6 4 6 11 9 16 6 5 -3
12 0 16 6 4 7 3 9 -4 5 -6 -3 -13 -2 -17 4 -3 5 2 10 12 11 14 0 14 2 -4 9
-13 5 -23 12 -23 15 0 4 5 3 10 0 6 -3 10 0 10 7 0 9 3 9 10 -2 7 -12 9 -10 7
7 -1 18 -4 20 -22 11 -15 -8 -12 -2 10 23 17 18 23 28 14 21 -16 -12 -29 -7
-29 10 0 5 6 6 13 2 7 -5 6 0 -3 11 -9 11 -10 16 -2 11 6 -4 12 -2 12 3 0 6
-4 11 -10 11 -5 0 -10 4 -10 10 0 5 8 7 18 4 16 -5 16 -5 0 6 -10 6 -15 17
-11 26 5 13 7 13 14 2 6 -9 8 -6 6 9 -1 18 -4 20 -22 11 -15 -8 -12 -2 10 23
17 18 23 28 14 21 -16 -12 -29 -7 -29 10 0 5 6 6 13 2 7 -5 6 0 -3 11 -9 11
-10 16 -2 11 6 -4 12 -2 12 3 0 6 -4 11 -10 11 -5 0 -10 4 -10 10 0 5 8 7 18
4 14 -5 15 -4 2 5 -16 10 -19 48 -6 69 4 7 2 12 -6 12 -10 0 -10 2 1 9 7 5 11
15 9 22 -3 8 -1 26 3 41 6 22 3 31 -14 44 l-22 16 23 -7 c13 -4 22 -2 22 5 0
6 -4 8 -10 5 -6 -3 -10 -2 -10 4 0 6 -8 8 -17 5 -17 -5 -17 -5 0 6 9 6 21 9
26 5 5 -3 4 8 -2 24 -6 17 -15 27 -21 24 -5 -3 -6 -1 -2 6 4 6 11 9 16 6 5 -3
12 0 16 6 4 7 3 9 -4 5 -6 -3 -13 -2 -17 4 -3 5 2 10 12 11 14 0 14 2 -4 9
-13 5 -23 12 -23 15 0 4 5 3 10 0 6 -3 10 0 10 7 0 9 3 9 10 -2 7 -12 9 -10 7
7 -1 18 -4 20 -22 11 -15 -8 -12 -2 10 23 17 18 23 28 14 21 -16 -12 -29 -7
-29 10 0 5 6 6 13 2 7 -5 6 0 -3 11 -9 11 -10 16 -2 11 6 -4 12 -2 12 3 0 6
-4 11 -10 11 -5 0 -10 4 -10 10 0 5 8 7 18 4 16 -5 16 -5 0 6 -10 6 -15 17
-11 26 5 13 7 13 14 2 6 -9 8 -6 6 9 -1 18 -4 20 -22 11 -15 -8 -12 -2 10 23
17 18 23 28 14 21 -16 -12 -29 -7 -29 10 0 5 6 6 13 2 7 -5 6 0 -3 11 -9 11
-10 16 -2 11 6 -4 12 -2 12 3 0 6 -4 11 -10 11 -5 0 -10 4 -10 10 0 5 8 7 18
4 14 -5 15 -4 2 5 -16 10 -19 48 -6 69 4 7 2 12 -6 12 -10 0 -10 2 1 9 7 5 11
15 9 22 -3 8 -1 26 3 41 6 22 3 31 -14 44 l-22 16 23 -7 c13 -4 22 -2 22 5 0
6 -4 8 -10 5 -6 -3 -10 -2 -10 4 0 6 -8 8 -17 5 -17 -5 -17 -5 0 6 9 6 21 9
26 5 5 -3 4 8 -2 24 -6 17 -15 27 -21 24 -5 -3 -6 -1 -2 6 4 6 11 9 16 6 5 -3
12 0 16 6 4 7 3 9 -4 5 -6 -3 -13 -2 -17 4 -3 5 2 10 12 11 14 0 14 2 -4 9
-13 5 -23 12 -23 15 0 4 5 3 10 0 6 -3 10 0 10 7 0 9 3 9 10 -2 7 -12 9 -10 7
7 -1 18 -4 20 -22 11 -15 -8 -12 -2 10 23 17 18 23 28 14 21 -16 -12 -29 -7
-29 10 0 5 6 6 13 2 7 -5 6 0 -3 11 -9 11 -10 16 -2 11 6 -4 12 -2 12 3 0 6
-4 11 -10 11 -5 0 -10 4 -10 10 0 5 8 7 18 4 16 -5 16 -5 0 6 -10 6 -15 17
-11 26 5 13 7 13 14 2 6 -9 8 -6 6 9 -1 18 -4 20 -22 11 -15 -8 -12 -2 10 23
17 18 23 28 14 21 -16 -12 -29 -7 -29 10 0 5 6 6 13 2 7 -5 6 0 -3 11 -9 11
-10 16 -2 11 6 -4 12 -2 12 3 0 6 -4 11 -10 11 -5 0 -10 4 -10 10 0 5 8 7 18
4 14 -5 15 -4 2 5 -16 10 -19 48 -6 69 4 7 2 12 -6 12 -10 0 -10 2 1 9 7 5 11
15 9 22 -3 8 -1 26 3 41 6 22 3 31 -14 44 l-22 16 23 -7 c13 -4 22 -2 22 5 0
6 -4 8 -10 5 -5 -3 -10 -2 -10 4 0 6 -8 8 -17 5 -17 -5 -17 -5 0 6 9 6 21 9
26 5 5 -3 4 8 -2 24 -6 17 -15 27 -21 24 -5 -3 -6 -1 -2 6 4 6 11 9 16 6 5 -3
12 0 16 6 4 7 3 9 -4 5 -6 -3 -13 -2 -17 4 -3 5 2 10 12 11 14 0 14 2 -4 9
-13 5 -23 12 -23 15 0 4 5 3 10 0 6 -3 10 0 10 7 0 9 3 9 10 -2 7 -12 9 -10 7
7 -1 18 -4 20 -22 11 -15 -8 -12 -2 10 23 17 18 23 28 14 21 -16 -12 -29 -7
-29 10 0 5 6 6 13 2 7 -5 6 0 -3 11 -9 11 -10 16 -2 11 6 -4 12 -2 12 3 0 6
-4 11 -10 11 -5 0 -10 4 -10 10 0 5 8 7 18 4 16 -5 16 -5 0 6 -10 6 -15 17
-11 26 5 13 7 13 14 2 6 -9 8 -6 6 9 -1 18 -4 20 -22 11 -15 -8 -12 -2 10 23
17 18 23 28 14 21 -16 -12 -29 -7 -29 10 0 5 6 6 13 2 7 -5 6 0 -3 11 -9 11
-10 16 -2 11 6 -4 12 -2 12 3 0 6 -4 11 -10 11 -5 0 -10 4 -10 10 0 5 8 7 18
4 14 -5 15 -4 2 5 -16 10 -19 48 -6 69 4 7 2 12 -6 12 -10 0 -10 2 1 9 7 5 11
15 9 22 -3 8 -1 26 3 41 6 22 3 31 -14 44 l-22 16 23 -7 c13 -4 22 -2 22 5 0
6 -4 8 -10 5 -5 -3 -10 -2 -10 4 0 6 -8 8 -17 5 -17 -5 -17 -5 0 6 9 6 21 9
26 5 5 -3 4 8 -2 24 -6 17 -15 27 -21 24 -5 -3 -6 -1 -2 6 4 6 11 9 16 6 5 -3
12 0 16 6 4 7 3 9 -4 5 -6 -3 -13 -2 -17 4 -3 5 2 10 12 11 14 0 14 2 -4 9
-13 5 -23 12 -23 15 0 4 5 3 10 0 6 -3 10 0 10 7 0 9 3 9 10 -2 7 -12 9 -10 7
7 -1 18 -4 20 -22 11 -15 -8 -12 -2 10 23 17 18 23 28 14 21 -16 -12 -29 -7
-29 10 0 5 6 6 13 2 7 -5 6 0 -3 11 -9 11 -10 16 -2 11 6 -4 12 -2 12 3 0 6
-4 11 -10 11 -5 0 -10 4 -10 10 0 5 8 7 18 4 16 -5 16 -5 0 6 -10 6 -15 17
-11 26 5 13 7 13 14 2 6 -9 8 -6 6 9 -1 18 -4 20 -22 11 -15 -8 -12 -2 10 23
17 18 23 28 14 21 -16 -12 -29 -7 -29 10 0 5 6 6 13 2 7 -5 6 0 -3 11 -9 11
-10 16 -2 11 6 -4 12 -2 12 3 0 6 -4 11 -10 11 -5 0 -10 4 -10 10 0 5 8 7 18
4 14 -5 15 -4 2 5 -16 10 -19 48 -6 69 4 7 2 12 -6 12 -10 0 -10 2 1 9 7 5 11
15 9 22 -3 8 -1 26 3 41 4 16 3 30 -2 34 -6 3 -5 12 3 22 10 12 10 14 1 8 -7
-4 -13 -3 -13 3 0 6 -8 8 -17 5 -17 -5 -17 -5 0 6 9 6 22 8 28 4 8 -4 8 -1 1
12 -5 11 -7 25 -4 33 3 8 0 11 -7 7 -6 -4 -11 -2 -11 3 0 6 6 11 13 11 6 1 1
7 -13 16 l-25 15 25 -6 25 -6 -24 14 c-18 11 -20 16 -10 20 10 4 10 6 2 6 -7
1 -13 6 -13 12 0 5 6 7 13 3 6 -4 4 2 -6 13 -9 11 -14 24 -10 28 5 5 1 4 -7
-2 -11 -8 -20 -9 -30 -1 -12 8 -12 9 3 4 11 -3 17 0 17 10 0 8 -4 12 -10 9 -5
-3 -10 -1 -10 5 0 7 -7 10 -15 6 -9 -3 -15 0 -15 10 0 9 5 12 13 8 7 -4 9 -3
4 2 -5 5 -13 10 -18 10 -5 1 -10 2 -11 4 -2 1 -12 4 -23 7 -34 9 -3373 9
-3368 0 3 -5 -5 -4 -17 3 -12 7 -20 8 -17 3z m3427 -34 c0 -6 -4 -7 -10 -4 -5
3 -10 11 -10 16 0 6 5 7 10 4 6 -3 10 -11 10 -16z m-3540 -189 c0 -5 -2 -10
-4 -10 -3 0 -8 5 -11 10 -3 6 -1 10 4 10 6 0 11 -4 11 -10z m0 -40 c0 -4 -7
-11 -16 -14 -13 -5 -14 -4 -6 7 7 8 8 18 4 22 -4 5 -1 5 6 1 6 -4 12 -11 12
-16z m3649 -72 c-16 -31 -16 -31 -23 -13 -3 9 -2 14 3 11 5 -3 11 1 15 9 3 8
8 15 11 15 3 0 0 -10 -6 -22z m1 -48 c0 -5 -5 -10 -11 -10 -5 0 -7 5 -4 10 3
6 8 10 11 10 2 0 4 -4 4 -10z m-3650 -60 c0 -4 -6 -10 -14 -13 -12 -5 -14 2
-7 31 2 7 21 -10 21 -18z m484 -5 c-11 -8 -14 -15 -6 -15 23 0 27 -2 41 -13
12 -10 12 -9 2 11 -14 26 -9 28 15 5 16 -16 16 -16 10 5 -5 14 -3 22 4 22 6 0
9 -4 6 -8 -2 -4 -1 -14 5 -22 7 -12 9 -11 10 5 0 11 3 15 5 9 6 -13 44 -7 44
7 0 5 5 9 10 9 6 0 9 -3 9 -7 -4 -22 4 -29 30 -29 16 1 33 5 38 10 5 5 2 6 -7
1 -12 -7 -13 -6 -2 6 11 12 15 11 24 -6 11 -19 11 -19 19 0 6 19 8 18 17 -5 8
-18 11 -20 11 -7 1 19 27 23 34 5 2 -7 8 -10 12 -6 4 4 2 16 -6 25 -13 16 -12
17 3 5 9 -7 18 -9 20 -5 3 4 3 3 2 -4 -4 -15 24 -25 32 -11 5 7 2 8 -6 3 -9
-5 -11 -4 -6 3 12 19 26 14 27 -10 0 -22 1 -22 9 -3 5 11 9 14 9 7 1 -10 5
-10 17 2 13 13 19 14 37 4 12 -7 26 -11 31 -10 5 2 13 -3 18 -10 7 -10 9 -10
5 2 -2 8 -11 14 -20 14 -9 -1 -14 2 -11 7 8 13 21 11 37 -6 13 -13 16 -13 21
1 3 9 13 14 20 11 8 -3 17 -3 19 1 2 4 2 2 1 -5 -4 -15 24 -25 32 -11 5 7 2 8
-6 3 -9 -5 -11 -4 -6 3 11 19 26 14 26 -8 0 -11 4 -20 10 -20 5 0 6 8 3 18 -6
15 -5 16 12 2 10 -8 16 -10 12 -3 -4 6 -1 13 5 16 17 5 39 -3 33 -12 -2 -4 2
-8 10 -8 8 0 12 4 9 9 -3 4 0 8 6 8 6 0 8 5 4 12 -4 7 -3 8 5 4 6 -4 9 -12 6
-17 -3 -5 2 -6 11 -2 11 4 15 3 10 -5 -3 -6 6 -4 23 4 29 15 61 10 61 -9 0 -6
6 -3 13 8 8 10 19 15 25 11 5 -3 12 -3 15 1 2 5 2 3 1 -4 -4 -15 24 -25 32
-11 5 7 2 8 -6 3 -9 -5 -11 -4 -6 3 11 19 26 14 26 -8 0 -11 4 -20 10 -20 5 0
6 8 3 18 -6 15 -5 16 12 2 10 -8 16 -10 12 -3 -4 6 -1 13 5 16 17 5 39 -3 33
-12 -2 -4 2 -8 10 -8 8 0 12 4 9 9 -3 4 0 8 6 8 6 0 8 5 4 12 -4 7 -3 8 5 4 6
-4 9 -12 6 -17 -3 -5 2 -6 11 -2 12 5 15 3 9 -6 -4 -8 4 -6 19 4 14 10 26 13
26 9 0 -5 5 -2 11 6 9 13 10 13 6 0 -2 -8 -10 -15 -17 -15 -7 0 -14 -6 -16
-13 -1 -7 0 -8 2 -3 3 5 16 8 29 5 13 -2 27 1 31 7 5 8 2 9 -7 4 -12 -7 -12
-6 -1 6 11 12 15 11 24 -6 11 -19 11 -19 19 0 6 19 8 18 17 -5 8 -18 11 -20
11 -7 1 19 27 23 34 5 2 -7 8 -10 12 -6 4 4 2 16 -6 25 -13 16 -12 17 3 5 9
-7 18 -9 20 -5 3 4 3 3 2 -4 -4 -15 24 -25 32 -11 5 7 2 8 -6 3 -9 -5 -11 -4
-6 3 12 19 26 14 27 -10 0 -22 1 -22 9 -3 5 11 9 14 9 7 1 -10 5 -9 17 3 15
14 18 14 40 0 13 -8 24 -13 24 -9 0 4 8 0 18 -7 15 -13 16 -12 3 4 -12 15 -11
17 2 17 8 0 18 -6 21 -12 3 -7 3 -3 0 10 -3 13 -1 22 6 22 6 0 9 -4 6 -8 -2
-4 -1 -14 5 -22 7 -12 9 -11 10 5 0 11 3 15 5 9 6 -13 44 -7 44 7 0 5 4 9 10
9 5 0 9 -3 9 -7 -4 -22 3 -32 21 -30 11 1 20 5 20 10 0 5 -8 6 -17 2 -14 -5
-15 -4 -6 6 9 9 18 8 39 -5 21 -14 29 -15 38 -5 8 9 7 11 -7 6 -11 -4 -16 -3
-12 4 4 6 13 8 20 5 8 -3 16 0 19 7 3 7 3 1 0 -13 -6 -24 -6 -24 13 -7 24 21
33 22 33 2 0 -17 16 -20 25 -5 15 24 43 30 56 12 13 -15 12 -16 -3 -3 -13 9
-18 10 -18 2 0 -7 -5 -9 -12 -5 -7 4 -8 3 -4 -5 4 -6 12 -8 18 -5 6 4 14 0 19
-7 7 -11 9 -11 9 -1 0 8 5 10 12 6 8 -5 9 -2 5 9 -3 10 -2 17 3 17 6 0 10 -7
10 -15 0 -8 5 -15 10 -15 6 0 10 6 10 14 0 8 5 18 12 22 8 5 9 2 5 -9 -5 -14
5 -23 16 -14 2 1 12 -5 23 -13 18 -14 18 -14 5 3 -12 15 -11 17 2 17 8 0 18
-6 21 -12 3 -7 3 -3 0 10 -3 13 -1 22 6 22 6 0 9 -4 6 -8 -2 -4 -1 -14 5 -22
7 -12 9 -11 10 5 0 11 3 15 5 9 6 -13 44 -7 44 7 0 5 5 9 10 9 6 0 9 -3 9 -7
-4 -22 4 -29 30 -29 16 1 33 5 38 10 5 5 2 6 -7 1 -12 -7 -13 -6 -2 6 11 12
15 11 24 -6 11 -19 11 -19 19 0 6 19 8 18 17 -5 8 -18 11 -20 11 -7 1 19 27
23 34 5 2 -7 8 -10 12 -6 4 4 2 16 -6 25 -13 16 -12 17 3 5 9 -7 18 -9 20 -5
3 4 3 3 2 -4 -4 -15 24 -25 32 -11 5 7 2 8 -6 3 -9 -5 -11 -4 -6 3 12 19 26
14 27 -10 0 -22 1 -22 9 -3 5 11 9 14 9 7 1 -10 5 -10 17 2 13 13 19 14 37 4
12 -7 26 -11 31 -10 5 2 13 -3 18 -10 7 -10 9 -10 5 2 -2 8 -11 14 -20 14 -9
-1 -14 2 -11 7 8 13 21 11 37 -6 13 -13 16 -13 21 1 3 9 13 14 20 11 8 -3 17
-3 19 1 2 4 2 2 1 -5 -4 -15 24 -25 32 -11 5 7 2 8 -6 3 -9 -5 -11 -4 -6 3 11
19 26 14 26 -8 0 -11 4 -20 10 -20 5 0 6 8 3 18 -6 15 -5 16 12 2 10 -8 16
-10 12 -3 -4 6 -1 13 5 16 17 6 39 -3 33 -13 -7 -11 22 -6 32 5 4 4 1 5 -7 0
-13 -7 -13 -6 -1 6 10 11 15 11 18 1 3 -6 10 -9 16 -5 7 4 7 0 -1 -9 -12 -14
-10 -16 10 -10 21 5 22 4 9 -11 -12 -16 -8 -22 12 -18 5 1 6 -3 2 -9 -3 -6
-10 -8 -15 -5 -12 8 -7 -48 5 -57 7 -5 7 -10 0 -15 -13 -10 -14 -63 -2 -63 6
0 2 -10 -9 -22 -10 -12 -14 -18 -7 -15 14 9 30 -12 16 -22 -13 -9 -9 -36 6
-33 7 1 10 -2 6 -8 -3 -6 -10 -8 -15 -5 -12 8 -7 -48 5 -58 6 -6 5 -10 -3 -14
-10 -4 -10 -8 0 -21 7 -9 8 -13 2 -9 -6 4 -10 -8 -10 -34 0 -21 3 -39 6 -39 4
0 7 -7 7 -15 0 -8 -4 -12 -9 -9 -4 3 -8 0 -8 -5 0 -6 4 -11 8 -11 5 0 9 -7 9
-15 0 -8 -4 -12 -9 -9 -4 3 -8 0 -8 -5 0 -6 4 -11 8 -11 5 0 9 -7 9 -15 0 -8
-4 -12 -9 -9 -4 3 -8 0 -8 -5 0 -6 4 -11 8 -11 5 0 9 -7 9 -15 0 -8 -4 -12 -9
-9 -4 3 -8 0 -8 -5 0 -6 4 -11 8 -11 5 0 9 -7 9 -15 0 -8 -4 -12 -9 -9 -4 3
-8 0 -8 -5 0 -6 4 -11 8 -11 5 0 9 -7 9 -15 0 -8 -4 -12 -9 -9 -4 3 -8 0 -8
-5 0 -6 4 -11 8 -11 5 0 9 -7 9 -15 0 -8 -4 -12 -9 -9 -4 3 -8 0 -8 -5 0 -6 4
-11 8 -11 5 0 9 -7 9 -15 0 -8 -4 -12 -9 -9 -4 3 -8 0 -8 -5 0 -6 4 -11 8 -11
5 0 9 -7 9 -15 0 -8 -4 -12 -9 -9 -4 3 -8 0 -8 -5 0 -6 4 -11 8 -11 5 0 9 -7
9 -15 0 -8 -4 -12 -9 -9 -4 3 -8 0 -8 -5 0 -6 4 -11 8 -11 5 0 9 -7 9 -15 0
-8 -4 -12 -9 -9 -4 3 -8 0 -8 -5 0 -6 4 -11 8 -11 5 0 9 -7 9 -15 0 -8 -4 -12
-9 -9 -4 3 -8 0 -8 -5 0 -6 4 -11 8 -11 5 0 9 -7 9 -15 0 -8 -4 -12 -9 -9 -4
3 -8 0 -8 -5 0 -6 4 -11 8 -11 5 0 9 -7 9 -15 0 -8 -4 -12 -9 -9 -4 3 -8 0 -8
-5 0 -6 4 -11 8 -11 5 0 9 -7 9 -15 0 -8 -4 -12 -9 -9 -4 3 -8 0 -8 -5 0 -6 4
-11 8 -11 5 0 9 -7 9 -15 0 -8 -4 -12 -9 -9 -4 3 -8 0 -8 -5 0 -6 5 -11 10
-11 7 0 7 -6 0 -19 -7 -14 -6 -21 3 -24 8 -4 8 -8 2 -14 -13 -10 -14 -63 -2
-63 6 0 2 -10 -9 -22 -10 -12 -14 -18 -7 -15 14 9 30 -12 16 -22 -13 -9 -9
-36 6 -33 7 1 10 -2 6 -8 -3 -6 -10 -8 -15 -5 -12 8 -7 -48 5 -57 7 -5 7 -10
0 -15 -13 -10 -14 -63 -2 -63 6 0 2 -10 -9 -22 -10 -12 -14 -18 -7 -15 14 9
30 -12 16 -22 -13 -9 -9 -36 6 -33 7 1 10 -2 6 -8 -3 -6 -10 -8 -15 -5 -12 8
-7 -48 5 -58 6 -6 5 -10 -3 -14 -10 -4 -10 -8 0 -21 7 -9 8 -13 2 -9 -6 4 -10
-8 -10 -34 0 -21 3 -39 6 -39 4 0 7 -7 7 -15 0 -8 -4 -12 -9 -9 -4 3 -8 0 -8
-5 0 -6 4 -11 8 -11 5 0 9 -7 9 -15 0 -8 -4 -12 -9 -9 -4 3 -8 0 -8 -5 0 -6 4
-11 8 -11 5 0 9 -7 9 -15 0 -8 -4 -12 -9 -9 -4 3 -8 0 -8 -5 0 -6 4 -11 8 -11
5 0 9 -7 9 -15 0 -8 -4 -12 -9 -9 -4 3 -8 0 -8 -5 0 -6 4 -11 8 -11 5 0 9 -7
9 -15 0 -8 -4 -12 -9 -9 -4 3 -8 0 -8 -5 0 -6 4 -11 8 -11 5 0 9 -7 9 -15 0
-8 -4 -12 -9 -9 -4 3 -8 0 -8 -5 0 -6 4 -11 8 -11 5 0 9 -7 9 -15 0 -8 -4 -12
-9 -9 -4 3 -8 0 -8 -5 0 -6 4 -11 8 -11 5 0 9 -7 9 -15 0 -8 -4 -12 -9 -9 -4
3 -8 0 -8 -5 0 -6 4 -11 8 -11 5 0 9 -7 9 -15 0 -8 -4 -12 -9 -9 -4 3 -8 0 -8
-5 0 -6 4 -11 8 -11 5 0 9 -7 9 -15 0 -8 -4 -12 -9 -9 -4 3 -8 0 -8 -5 0 -6 4
-11 8 -11 5 0 9 -7 9 -15 0 -8 -4 -12 -9 -9 -4 3 -8 0 -8 -5 0 -6 4 -11 8 -11
5 0 9 -7 9 -15 0 -8 -4 -12 -9 -9 -4 3 -8 0 -8 -5 0 -6 4 -11 8 -11 5 0 9 -7
9 -15 0 -8 -4 -12 -9 -9 -4 3 -8 0 -8 -5 0 -6 4 -11 8 -11 5 0 9 -7 9 -15 0
-8 -4 -12 -9 -9 -4 3 -8 0 -8 -5 0 -6 4 -11 8 -11 5 0 9 -7 9 -15 0 -8 -4 -12
-9 -9 -4 3 -8 0 -8 -5 0 -6 4 -11 8 -11 5 0 9 -7 9 -15 0 -8 -4 -12 -9 -9 -4
3 -8 0 -8 -5 0 -6 5 -11 10 -11 7 0 7 -6 0 -19 -7 -14 -6 -21 3 -24 8 -4 8 -8
2 -14 -13 -10 -14 -63 -2 -63 6 0 2 -10 -9 -22 -10 -12 -14 -18 -7 -15 14 9
30 -12 16 -22 -13 -9 -9 -36 6 -33 7 1 10 -2 6 -8 -3 -6 -10 -8 -15 -5 -12 8
-7 -48 5 -57 7 -5 7 -10 0 -15 -13 -10 -14 -63 -2 -63 6 0 2 -10 -9 -22 -10
-12 -14 -18 -7 -15 14 9 30 -12 16 -22 -13 -9 -9 -36 6 -33 7 1 10 -2 6 -8 -3
-6 -10 -8 -15 -5 -12 8 -7 -48 5 -58 6 -6 5 -10 -3 -14 -10 -4 -10 -8 0 -21 7
-9 8 -13 2 -9 -6 4 -10 -8 -10 -34 0 -21 3 -39 6 -39 4 0 7 -7 7 -15 0 -8 -4
-12 -9 -9 -4 3 -8 0 -8 -5 0 -6 4 -11 8 -11 5 0 9 -7 9 -15 0 -8 -4 -12 -9 -9
-4 3 -8 0 -8 -5 0 -6 4 -11 8 -11 5 0 9 -7 9 -15 0 -8 -4 -12 -9 -9 -4 3 -8 0
-8 -5 0 -6 4 -11 8 -11 5 0 9 -7 9 -15 0 -8 -4 -12 -9 -9 -4 3 -8 0 -8 -5 0
-6 4 -11 8 -11 5 0 9 -7 9 -15 0 -8 -4 -12 -9 -9 -4 3 -8 0 -8 -5 0 -6 4 -11
8 -11 5 0 9 -7 9 -15 0 -8 -4 -12 -9 -9 -4 3 -8 0 -8 -5 0 -6 4 -11 8 -11 5 0
9 -7 9 -15 0 -8 -4 -12 -9 -9 -4 3 -8 0 -8 -5 0 -6 4 -11 8 -11 5 0 9 -7 9
-15 0 -8 -4 -12 -9 -9 -4 3 -8 0 -8 -5 0 -6 4 -11 8 -11 5 0 9 -7 9 -15 0 -8
-4 -12 -9 -9 -4 3 -8 0 -8 -5 0 -6 4 -11 8 -11 5 0 9 -7 9 -15 0 -8 -4 -12 -9
-9 -4 3 -8 0 -8 -5 0 -6 4 -11 8 -11 5 0 9 -7 9 -15 0 -8 -4 -12 -9 -9 -4 3
-8 0 -8 -5 0 -6 4 -11 8 -11 5 0 9 -7 9 -15 0 -8 -4 -12 -9 -9 -4 3 -8 0 -8
-5 0 -6 4 -11 8 -11 5 0 9 -7 9 -15 0 -8 -4 -12 -9 -9 -4 3 -8 0 -8 -5 0 -6 4
-11 8 -11 5 0 9 -7 9 -15 0 -8 -4 -12 -9 -9 -4 3 -8 0 -8 -5 0 -6 4 -11 8 -11
5 0 9 -7 9 -15 0 -8 -4 -12 -9 -9 -4 3 -8 0 -8 -5 0 -6 4 -11 8 -11 5 0 9 -7
9 -15 0 -8 -4 -12 -9 -9 -4 3 -8 0 -8 -5 0 -6 5 -11 10 -11 7 0 7 -6 0 -19 -7
-14 -6 -21 3 -24 8 -4 8 -8 2 -14 -13 -10 -14 -63 -2 -63 6 0 2 -10 -9 -22
-10 -12 -14 -18 -7 -15 14 9 30 -12 16 -22 -13 -9 -9 -36 6 -33 7 1 10 -2 6
-8 -3 -6 -10 -8 -15 -5 -12 8 -7 -48 5 -57 7 -5 7 -10 0 -15 -13 -10 -14 -63
-2 -63 6 0 2 -10 -9 -22 -10 -12 -14 -18 -7 -15 14 9 30 -12 16 -22 -13 -9 -9
-36 6 -33 7 1 10 -2 6 -8 -3 -6 -10 -8 -15 -5 -12 8 -7 -48 5 -58 6 -6 5 -10
-3 -14 -10 -4 -10 -8 0 -21 10 -12 10 -14 1 -8 -7 4 -13 3 -13 -3 0 -5 6 -11
13 -14 9 -3 9 -7 -2 -20 -11 -14 -11 -17 0 -17 11 0 11 -2 -1 -10 -11 -7 -11
-10 -2 -10 7 0 10 -5 7 -10 -4 -6 -11 -8 -16 -5 -5 3 -6 -1 -3 -9 4 -11 -4
-14 -40 -14 -26 0 -44 3 -42 7 3 4 -1 8 -8 8 -9 0 -12 -7 -8 -16 5 -13 3 -14
-10 -4 -8 7 -18 10 -22 6 -10 -11 -79 -3 -95 10 -11 9 -13 9 -8 1 4 -7 -3 -14
-18 -16 -13 -3 -22 -1 -19 3 8 13 -10 11 -25 -4 -10 -8 -12 -8 -7 0 3 6 2 14
-3 17 -5 3 -12 -1 -15 -9 -4 -12 -10 -13 -24 -6 -13 7 -23 6 -32 -2 -10 -9
-11 -9 -6 0 3 6 2 14 -3 17 -5 3 -12 -1 -15 -9 -4 -12 -10 -13 -24 -6 -13 7
-23 6 -32 -2 -10 -9 -11 -9 -6 0 3 6 2 14 -3 17 -5 3 -12 -1 -15 -9 -4 -12
-10 -13 -24 -6 -13 7 -23 6 -32 -2 -10 -9 -11 -9 -6 0 3 6 2 14 -3 17 -5 3
-12 -1 -15 -9 -4 -12 -10 -14 -25 -5 -11 5 -22 6 -25 2 -3 -4 -21 -6 -40 -4
-20 2 -34 7 -31 11 2 4 -2 8 -9 8 -9 0 -12 -7 -8 -16 5 -14 3 -14 -10 -3 -9 7
-19 9 -22 4 -2 -4 -21 -6 -40 -4 -20 2 -34 7 -31 11 2 4 -2 8 -9 8 -9 0 -12
-7 -8 -16 5 -14 3 -14 -10 -3 -9 7 -19 9 -22 4 -2 -4 -21 -6 -40 -4 -20 2 -34
7 -31 11 2 4 -2 8 -9 8 -9 0 -12 -7 -8 -16 5 -14 3 -14 -10 -3 -9 7 -19 9 -22
4 -2 -4 -21 -6 -40 -4 -20 2 -34 7 -31 11 2 4 -2 8 -9 8 -9 0 -12 -7 -8 -16 5
-13 3 -14 -10 -4 -8 7 -18 10 -22 6 -10 -11 -79 -3 -95 10 -11 9 -13 9 -8 1 4
-7 -3 -14 -18 -16 -13 -3 -22 -1 -19 3 8 13 -10 11 -25 -4 -10 -8 -12 -8 -7 0
3 6 2 14 -3 17 -5 3 -12 -1 -15 -9 -4 -12 -10 -13 -24 -6 -13 7 -23 6 -32 -2
-10 -9 -11 -9 -6 0 3 6 2 14 -3 17 -5 3 -12 -1 -15 -9 -4 -12 -10 -13 -24 -6
-13 7 -23 6 -32 -2 -10 -9 -11 -9 -6 0 3 6 2 14 -3 17 -5 3 -12 -1 -15 -9 -4
-12 -10 -13 -24 -6 -13 7 -23 6 -32 -2 -10 -9 -11 -9 -6 0 3 6 2 14 -3 17 -5
3 -12 -1 -15 -9 -4 -12 -10 -14 -25 -5 -11 5 -22 6 -25 2 -3 -4 -21 -6 -40 -4
-20 2 -34 7 -31 11 2 4 -2 8 -9 8 -9 0 -12 -7 -8 -16 5 -14 3 -14 -10 -3 -9 7
-19 9 -22 4 -2 -4 -21 -6 -40 -4 -20 2 -34 7 -31 11 2 4 -2 8 -9 8 -9 0 -12
-7 -8 -16 5 -14 3 -14 -10 -3 -9 7 -19 9 -22 4 -2 -4 -21 -6 -40 -4 -20 2 -34
7 -31 11 2 4 -2 8 -9 8 -9 0 -12 -7 -8 -16 5 -14 3 -14 -10 -3 -9 7 -19 9 -22
4 -2 -4 -21 -6 -40 -4 -20 2 -34 7 -31 11 2 4 -2 8 -9 8 -9 0 -12 -7 -8 -16 5
-13 3 -14 -10 -4 -8 7 -18 10 -22 6 -10 -11 -79 -3 -95 10 -11 9 -13 9 -8 1 4
-7 -3 -14 -18 -16 -13 -3 -22 -1 -19 3 8 13 -10 11 -25 -3 -10 -9 -12 -9 -7
-1 3 6 2 14 -3 17 -5 3 -12 -1 -15 -9 -4 -12 -10 -13 -24 -6 -13 7 -23 6 -32
-2 -10 -9 -11 -9 -6 0 3 6 2 14 -3 17 -5 3 -12 -1 -15 -9 -4 -12 -10 -13 -24
-6 -13 7 -23 6 -32 -2 -10 -9 -11 -9 -6 0 3 6 2 14 -3 17 -5 3 -12 -1 -15 -9
-4 -12 -10 -13 -24 -6 -13 7 -23 6 -32 -2 -10 -9 -11 -9 -6 0 3 6 2 14 -3 17
-5 3 -12 -1 -15 -9 -4 -12 -10 -14 -25 -5 -11 5 -22 6 -25 2 -3 -4 -21 -6 -40
-4 -20 2 -33 8 -30 13 3 5 1 9 -4 9 -6 0 -13 -8 -16 -17 -5 -11 -10 -13 -14
-7 -11 17 -41 24 -48 12 -5 -7 -2 -8 6 -3 9 5 11 4 6 -3 -5 -8 -13 -9 -25 -2
-10 5 -21 7 -24 4 -3 -3 -11 4 -17 16 -7 12 -8 20 -3 17 5 -4 10 0 10 8 0 8
-4 12 -9 9 -4 -3 -8 0 -8 5 0 6 4 11 9 11 6 0 6 12 0 32 -11 40 -11 40 -1 35
4 -3 5 18 3 45 -2 40 0 49 10 43 8 -3 5 1 -5 9 -11 9 -14 16 -8 16 9 0 10 5 2
19 -12 23 -13 34 -2 28 4 -3 7 10 7 29 0 19 -4 34 -10 34 -5 0 -3 5 5 10 8 5
11 10 5 10 -5 0 -10 18 -11 40 -1 22 2 38 5 36 3 -2 4 19 2 46 -2 40 0 49 10
43 8 -3 5 1 -5 9 -11 9 -14 16 -8 16 9 0 10 5 2 19 -12 23 -13 34 -2 28 4 -3
7 10 7 29 0 19 -4 34 -10 34 -5 0 -3 5 5 10 8 5 11 10 5 10 -5 0 -10 18 -11
40 -1 22 2 38 5 36 3 -2 4 19 2 46 -2 40 0 49 10 43 8 -3 5 1 -5 9 -11 9 -14
16 -8 16 9 0 10 5 2 19 -12 23 -13 34 -2 28 8 -6 6 78 -3 93 -3 5 -3 10 2 10
4 0 9 11 9 25 1 14 -1 23 -5 21 -3 -2 -6 11 -6 29 0 19 4 31 9 28 5 -4 7 1 3
11 -4 10 -7 22 -7 27 0 6 -6 7 -12 4 -7 -4 -4 1 6 9 15 12 16 16 5 17 -10 0
-11 2 -1 6 10 4 10 8 0 21 -10 12 -10 14 0 8 6 -4 12 -2 12 3 0 6 -4 11 -9 11
-14 0 -8 34 9 48 12 9 12 12 1 10 -7 -2 -16 3 -19 11 -3 8 0 11 7 7 6 -4 9 -2
6 6 -9 30 -12 88 -4 88 6 0 5 9 -1 20 -7 13 -7 20 -1 20 7 0 7 9 1 25 -5 14
-6 25 -2 25 4 0 8 11 8 25 1 14 -1 23 -5 21 -3 -2 -6 11 -6 29 0 19 4 31 9 28
5 -4 7 1 3 11 -4 10 -7 22 -7 27 0 6 -6 7 -12 4 -7 -4 -4 1 6 9 15 12 16 16 5
17 -10 0 -11 2 -1 6 10 4 10 8 0 21 -10 12 -10 14 0 8 6 -4 12 -2 12 3 0 6 -4
11 -9 11 -14 0 -8 34 9 48 12 9 12 12 1 10 -7 -2 -16 3 -19 11 -3 8 0 11 7 7
6 -4 9 -2 6 6 -9 30 -12 88 -4 88 6 0 5 9 -1 20 -7 13 -7 20 -1 20 7 0 7 9 1
25 -5 14 -6 25 -2 25 4 0 8 11 8 25 1 14 -1 23 -5 21 -3 -2 -6 11 -6 29 0 19
4 31 9 28 5 -4 7 1 3 11 -4 10 -7 22 -7 27 0 6 -6 7 -12 4 -7 -4 -4 1 6 9 15
12 16 16 5 17 -10 0 -11 2 -1 6 10 4 10 8 0 21 -10 12 -10 14 0 8 6 -4 12 -2
12 3 0 6 -4 11 -9 11 -14 0 -8 34 9 48 12 9 12 12 1 10 -7 -2 -16 3 -19 11 -3
8 0 11 7 7 6 -4 9 -2 6 6 -9 30 -12 88 -4 88 6 0 5 9 -1 20 -7 13 -7 20 -1 20
7 0 7 9 1 25 -5 14 -6 25 -2 25 4 0 8 11 8 25 1 14 -1 23 -5 21 -3 -2 -6 11
-6 29 0 19 4 31 9 28 5 -4 7 1 3 11 -4 10 -7 22 -7 27 0 6 -6 7 -12 4 -7 -4
-4 1 6 9 15 12 16 16 5 17 -10 0 -11 2 -1 6 10 4 10 8 0 21 -10 12 -10 14 0 8
6 -4 12 -2 12 3 0 6 -4 11 -9 11 -14 0 -8 34 9 48 12 9 12 12 1 10 -7 -2 -16
3 -19 11 -3 8 0 11 7 7 6 -4 9 -2 6 6 -9 30 -12 88 -4 88 6 0 5 9 -1 20 -7 13
-7 20 -1 20 7 0 7 9 1 25 -5 14 -6 25 -2 25 4 0 8 11 8 25 1 14 -1 23 -5 21
-3 -2 -6 11 -6 29 0 19 4 31 9 28 5 -4 7 1 3 11 -4 10 -7 22 -7 27 0 6 -6 7
-12 4 -7 -4 -4 1 6 9 15 12 16 16 5 17 -10 0 -11 2 -1 6 10 4 10 8 0 21 -10
12 -10 14 0 8 6 -4 12 -2 12 3 0 6 -4 11 -9 11 -14 0 -8 34 9 48 12 9 12 12 1
10 -7 -2 -16 3 -19 11 -3 8 0 11 7 7 6 -4 9 -2 6 6 -9 30 -12 88 -4 88 6 0 5
9 -1 20 -7 13 -7 20 -1 20 7 0 7 9 1 25 -5 14 -6 25 -2 25 4 0 8 11 8 25 1 14
-1 23 -5 21 -3 -2 -6 11 -6 29 0 18 3 31 7 29 4 -3 8 0 8 5 0 6 -6 11 -12 11
-9 0 -8 4 2 10 8 5 11 10 5 10 -5 0 -10 18 -11 40 -1 22 2 38 5 36 3 -2 4 19
2 46 -2 40 0 49 10 43 8 -3 5 1 -5 9 -11 9 -14 16 -8 16 9 0 10 5 2 19 -12 23
-13 34 -2 28 4 -3 7 10 7 29 0 19 -4 34 -10 34 -5 0 -3 5 5 10 8 5 11 10 5 10
-5 0 -10 18 -11 40 -1 22 2 38 5 36 3 -2 4 19 2 46 -2 40 0 49 10 43 8 -3 5 1
-5 9 -11 9 -14 16 -8 16 9 0 10 5 2 19 -12 23 -13 34 -2 28 4 -3 7 10 7 29 0
19 -4 34 -10 34 -5 0 -3 5 5 10 10 6 11 10 3 10 -9 0 -10 7 -3 24 5 14 5 37 0
55 -7 25 -6 29 8 24 14 -5 15 -3 5 8 -7 7 -13 18 -13 24 0 5 5 3 10 -5 8 -13
10 -13 10 2 0 15 13 25 34 27 6 1 1 -6 -10 -14z m189 -6 c-8 -8 -13 -7 -18 2
-5 8 -4 10 3 5 7 -4 12 -2 12 5 0 7 3 9 7 6 4 -4 2 -12 -4 -18z m1920 0 c-8
-8 -13 -7 -18 2 -5 8 -4 10 3 5 7 -4 12 -2 12 5 0 7 3 9 7 6 4 -4 2 -12 -4
-18z m-2596 -38 c1 -11 -5 -22 -13 -25 -10 -4 -13 -2 -7 7 4 6 8 15 9 20 5 24
9 23 11 -2z m441 -56 c-3 -3 -9 2 -12 12 -6 14 -5 15 5 6 7 -7 10 -15 7 -18z
m-438 5 c0 -5 -5 -10 -11 -10 -5 0 -7 5 -4 10 3 6 8 10 11 10 2 0 4 -4 4 -10z
m3640 -36 c0 -8 -19 -13 -24 -6 -3 5 1 9 9 9 8 0 15 -2 15 -3z m-3643 -73 c1
-11 -5 -22 -13 -25 -10 -4 -13 -2 -7 7 4 6 8 15 9 20 5 24 9 23 11 -2z m3643
-87 c0 -8 -19 -13 -24 -6 -3 5 1 9 9 9 8 0 15 -2 15 -3z m-3640 -104 c0 -4 -6
-10 -14 -13 -12 -5 -14 2 -7 31 2 7 21 -10 21 -18z m-3 -49 c1 -11 -5 -22 -13
-25 -10 -4 -13 -2 -7 7 4 6 8 15 9 20 5 24 9 23 11 -2z m3652 -83 c-16 -31
-16 -31 -23 -13 -3 9 -2 14 3 11 5 -3 11 1 15 9 3 8 8 15 11 15 3 0 0 -10 -6
-22z m1 -48 c0 -5 -5 -10 -11 -10 -5 0 -7 5 -4 10 3 6 8 10 11 10 2 0 4 -4 4
-10z m-3650 -60 c0 -4 -6 -10 -14 -13 -12 -5 -14 2 -7 31 2 7 21 -10 21 -18z
m-3 -49 c1 -11 -5 -22 -13 -25 -10 -4 -13 -2 -7 7 4 6 8 15 9 20 5 24 9 23 11
-2z m3 -51 c0 -5 -5 -10 -11 -10 -5 0 -7 5 -4 10 3 6 8 10 11 10 2 0 4 -4 4
-10z m3640 -36 c0 -8 -19 -13 -24 -6 -3 5 1 9 9 9 8 0 15 -2 15 -3z m-3640
-104 c0 -4 -6 -10 -14 -13 -12 -5 -14 2 -7 31 2 7 21 -10 21 -18z m-3 -49 c1
-11 -5 -22 -13 -25 -10 -4 -13 -2 -7 7 4 6 8 15 9 20 5 24 9 23 11 -2z m3643
-7 c0 -8 -19 -13 -24 -6 -3 5 1 9 9 9 8 0 15 -2 15 -3z m9 -236 c-16 -31 -16
-31 -23 -13 -3 9 -2 14 3 11 5 -3 11 1 15 9 3 8 8 15 11 15 3 0 0 -10 -6 -22z
m-3649 -28 c0 -4 -6 -10 -14 -13 -12 -5 -14 2 -7 31 2 7 21 -10 21 -18z m3650
-20 c0 -5 -5 -10 -11 -10 -5 0 -7 5 -4 10 3 6 8 10 11 10 2 0 4 -4 4 -10z
m-3653 -29 c1 -11 -5 -22 -13 -25 -10 -4 -13 -2 -7 7 4 6 8 15 9 20 5 24 9 23
11 -2z m3643 -167 c0 -8 -19 -13 -24 -6 -3 5 1 9 9 9 8 0 15 -2 15 -3z m-3640
-24 c0 -4 -6 -10 -14 -13 -12 -5 -14 2 -7 31 2 7 21 -10 21 -18z m3640 -136
c0 -8 -19 -13 -24 -6 -3 5 1 9 9 9 8 0 15 -2 15 -3z m-3643 -233 c1 -11 -5
-22 -13 -25 -10 -4 -13 -2 -7 7 4 6 8 15 9 20 5 24 9 23 11 -2z m3652 -3 c-16
-31 -16 -31 -23 -13 -3 9 -2 14 3 11 5 -3 11 1 15 9 3 8 8 15 11 15 3 0 0 -10
-6 -22z m1 -48 c0 -5 -5 -10 -11 -10 -5 0 -7 5 -4 10 3 6 8 10 11 10 2 0 4 -4
4 -10z m-3650 -140 c0 -4 -6 -10 -14 -13 -12 -5 -14 2 -7 31 2 7 21 -10 21
-18z m-3 -49 c1 -11 -5 -22 -13 -25 -10 -4 -13 -2 -7 7 4 6 8 15 9 20 5 24 9
23 11 -2z m3643 -7 c0 -8 -19 -13 -24 -6 -3 5 1 9 9 9 8 0 15 -2 15 -3z m0
-160 c0 -8 -19 -13 -24 -6 -3 5 1 9 9 9 8 0 15 -2 15 -3z m-3640 -24 c0 -4 -6
-10 -14 -13 -12 -5 -14 2 -7 31 2 7 21 -10 21 -18z m-3 -49 c1 -11 -5 -22 -13
-25 -10 -4 -13 -2 -7 7 4 6 8 15 9 20 5 24 9 23 11 -2z m3652 -163 c-16 -31
-16 -31 -23 -13 -3 9 -2 14 3 11 5 -3 11 1 15 9 3 8 8 15 11 15 3 0 0 -10 -6
-22z m1 -48 c0 -5 -5 -10 -11 -10 -5 0 -7 5 -4 10 3 6 8 10 11 10 2 0 4 -4 4
-10z m-10 -196 c0 -8 -19 -13 -24 -6 -3 5 1 9 9 9 8 0 15 -2 15 -3z m-3640
-104 c0 -4 -6 -10 -14 -13 -12 -5 -14 2 -7 31 2 7 21 -10 21 -18z m-3 -49 c1
-11 -5 -22 -13 -25 -10 -4 -13 -2 -7 7 4 6 8 15 9 20 5 24 9 23 11 -2z m3643
-7 c0 -8 -19 -13 -24 -6 -3 5 1 9 9 9 8 0 15 -2 15 -3z m9 -236 c-16 -31 -16
-31 -23 -13 -3 9 -2 14 3 11 5 -3 11 1 15 9 3 8 8 15 11 15 3 0 0 -10 -6 -22z
m-3649 -28 c0 -4 -6 -10 -14 -13 -12 -5 -14 2 -7 31 2 7 21 -10 21 -18z m3650
-20 c0 -5 -5 -10 -11 -10 -5 0 -7 5 -4 10 3 6 8 10 11 10 2 0 4 -4 4 -10z
m-3653 -29 c1 -11 -5 -22 -13 -25 -10 -4 -13 -2 -7 7 4 6 8 15 9 20 5 24 9 23
11 -2z m3643 -167 c0 -8 -19 -13 -24 -6 -3 5 1 9 9 9 8 0 15 -2 15 -3z m-3640
-24 c0 -4 -6 -10 -14 -13 -12 -5 -14 2 -7 31 2 7 21 -10 21 -18z m-3 -49 c1
-11 -5 -22 -13 -25 -10 -4 -13 -2 -7 7 4 6 8 15 9 20 5 24 9 23 11 -2z m3643
-87 c0 -8 -19 -13 -24 -6 -3 5 1 9 9 9 8 0 15 -2 15 -3z m-3640 -104 c0 -4 -6
-10 -14 -13 -12 -5 -14 2 -7 31 2 7 21 -10 21 -18z m-3 -49 c1 -11 -5 -22 -13
-25 -10 -4 -13 -2 -7 7 4 6 8 15 9 20 5 24 9 23 11 -2z m3652 -83 c-16 -31
-16 -31 -23 -13 -3 9 -2 14 3 11 5 -3 11 1 15 9 3 8 8 15 11 15 3 0 0 -10 -6
-22z m1 -48 c0 -5 -5 -10 -11 -10 -5 0 -7 5 -4 10 3 6 8 10 11 10 2 0 4 -4 4
-10z m-3650 -60 c0 -4 -6 -10 -14 -13 -12 -5 -14 2 -7 31 2 7 21 -10 21 -18z
m-3 -49 c1 -11 -5 -22 -13 -25 -10 -4 -13 -2 -7 7 4 6 8 15 9 20 5 24 9 23 11
-2z m3 -51 c0 -5 -5 -10 -11 -10 -5 0 -7 5 -4 10 3 6 8 10 11 10 2 0 4 -4 4
-10z m3640 -36 c0 -8 -19 -13 -24 -6 -3 5 1 9 9 9 8 0 15 -2 15 -3z m-3643
-73 c1 -11 -5 -22 -13 -25 -10 -4 -13 -2 -7 7 4 6 8 15 9 20 5 24 9 23 11 -2z
m3643 -87 c0 -8 -19 -13 -24 -6 -3 5 1 9 9 9 8 0 15 -2 15 -3z m-3636 -86 c-3
-4 -12 -8 -20 -8 -8 0 -13 4 -10 8 3 5 12 9 20 9 8 0 13 -4 10 -9z m3643 -11
c0 -8 -6 -14 -14 -14 -9 0 -10 4 -2 14 6 7 12 13 14 13 1 0 2 -6 2 -13z m-2
-67 c-3 -5 -12 -10 -18 -10 -7 0 -6 4 3 10 19 12 23 12 15 0z m-4312 -284 c7
-17 -20 -30 -29 -14 -4 7 -3 8 4 4 7 -4 12 -1 12 8 0 20 6 20 13 2z m62 5 c-3
-5 -1 -12 5 -16 19 -12 59 -15 65 -5 3 6 -1 7 -9 4 -9 -3 -16 -1 -16 4 0 6 10
9 22 7 12 -3 29 1 37 8 9 7 8 2 -3 -11 -11 -12 -16 -25 -13 -29 4 -3 7 -1 7 6
0 7 10 10 25 7 15 -3 23 -1 20 5 -4 5 -11 7 -16 4 -15 -10 -10 2 8 16 9 8 14
9 10 3 -4 -8 4 -12 26 -12 17 -1 45 -2 61 -3 15 -1 32 4 36 11 5 8 9 7 13 -5
5 -10 3 -14 -5 -9 -7 4 -8 3 -4 -4 5 -9 14 -7 33 5 l26 17 -13 -24 -13 -25 22
19 c18 16 25 17 48 7 24 -11 25 -11 12 5 -13 16 -12 16 9 5 12 -7 20 -17 16
-22 -3 -6 3 -5 14 2 12 7 18 17 15 23 -4 5 -1 6 6 2 7 -5 10 -15 7 -23 -3 -8
-1 -11 4 -8 6 3 10 12 10 20 0 8 5 17 12 21 6 4 8 3 4 -4 -3 -6 -2 -13 4 -17
19 -12 59 -15 65 -5 3 6 -1 7 -9 4 -9 -3 -16 -1 -16 4 0 6 10 9 22 7 12 -3 29
1 37 8 9 7 8 2 -3 -11 -11 -12 -16 -25 -13 -29 4 -3 7 -1 7 6 0 7 10 10 25 7
15 -3 23 -1 20 5 -4 5 -12 6 -18 2 -7 -4 -6 0 2 10 14 18 26 24 17 8 -3 -5 9
-9 27 -9 17 -1 45 -2 61 -3 15 -1 32 4 36 11 5 8 9 7 13 -5 5 -10 3 -14 -5 -9
-7 4 -8 3 -4 -4 5 -9 14 -7 33 5 l26 17 -13 -24 -13 -25 22 19 c18 16 25 17
48 7 24 -11 25 -11 12 5 -13 16 -12 16 9 5 12 -7 20 -17 16 -22 -3 -6 3 -5 14
2 12 7 18 17 15 23 -4 5 -1 6 6 2 7 -5 10 -15 7 -23 -3 -8 -1 -11 4 -8 6 3 10
12 10 20 0 8 5 17 12 21 6 4 8 3 4 -4 -3 -6 -2 -13 4 -17 19 -12 59 -15 65 -5
3 6 -1 7 -9 4 -9 -3 -16 -1 -16 4 0 6 10 9 22 7 12 -3 29 1 37 8 9 7 8 2 -3
-11 -11 -12 -16 -25 -13 -29 4 -3 7 -1 7 6 0 7 10 10 25 7 15 -3 23 -1 20 5
-4 5 -12 6 -18 2 -7 -4 -6 0 2 10 14 18 26 24 17 8 -3 -5 9 -9 27 -9 17 -1 45
-2 61 -3 15 -1 32 4 36 11 5 8 9 7 13 -5 5 -10 3 -14 -5 -9 -7 4 -8 3 -4 -4 5
-9 14 -7 33 5 l26 17 -13 -24 -13 -25 22 19 c18 16 25 17 48 7 24 -11 25 -11
12 5 -13 16 -12 16 9 5 12 -7 20 -17 16 -22 -3 -6 3 -5 14 2 12 7 18 17 15 23
-4 5 -1 6 6 2 7 -5 10 -15 7 -23 -3 -8 -1 -11 4 -8 6 3 10 12 10 20 0 8 5 17
12 21 6 4 8 3 4 -4 -3 -6 -2 -13 4 -17 19 -12 59 -15 65 -5 3 6 -1 7 -9 4 -9
-3 -16 -1 -16 4 0 6 10 9 22 7 12 -3 29 1 37 8 9 7 8 2 -3 -11 -11 -12 -16
-25 -13 -29 4 -3 7 -1 7 6 0 7 10 10 25 7 15 -3 23 -1 20 5 -4 5 -11 7 -16 4
-15 -10 -10 2 8 16 9 8 14 9 10 3 -4 -8 4 -12 26 -12 17 -1 45 -2 61 -3 15 -1
32 4 36 11 5 8 9 7 13 -5 5 -10 3 -14 -5 -9 -7 4 -8 3 -4 -4 5 -9 14 -7 33 5
l26 17 -13 -24 -13 -25 22 19 c18 16 25 17 48 7 24 -11 25 -11 12 5 -13 16
-12 16 9 5 12 -7 20 -17 16 -22 -3 -6 3 -5 14 2 12 7 18 17 15 23 -4 5 -1 6 6
2 7 -5 10 -15 7 -23 -3 -8 -1 -11 4 -8 6 3 10 12 10 20 0 8 5 17 12 21 6 4 8
3 4 -4 -3 -6 -2 -13 4 -17 19 -12 59 -15 65 -5 3 6 -1 7 -9 4 -9 -3 -16 -1
-16 4 0 6 10 9 22 7 12 -3 29 1 37 8 9 7 8 2 -3 -11 -11 -12 -16 -25 -13 -29
4 -3 7 -1 7 6 0 7 10 10 25 7 15 -3 23 -1 20 5 -4 5 -12 6 -18 2 -7 -4 -6 0 2
10 14 18 26 24 17 8 -3 -5 9 -9 27 -9 17 -1 45 -2 61 -3 15 -1 32 4 36 11 5 8
9 7 13 -5 5 -10 3 -14 -5 -9 -7 4 -8 3 -4 -4 5 -9 14 -7 33 5 l26 17 -13 -24
-13 -25 22 19 c18 16 25 17 48 7 24 -11 25 -11 12 5 -13 16 -12 16 9 5 12 -7
20 -17 16 -22 -3 -6 3 -5 14 2 12 7 18 17 15 23 -4 5 -1 6 6 2 7 -5 10 -15 7
-23 -3 -8 -1 -11 4 -8 6 3 10 12 10 20 0 8 5 17 12 21 6 4 8 3 4 -4 -3 -6 -2
-13 4 -17 19 -12 59 -15 65 -5 3 6 -1 7 -9 4 -9 -3 -16 -1 -16 4 0 6 10 9 22
7 12 -3 29 1 37 8 9 7 8 2 -3 -11 -11 -12 -16 -25 -13 -29 4 -3 7 -1 7 6 0 7
10 10 25 7 15 -3 23 -1 20 5 -4 5 -12 6 -18 2 -7 -4 -6 0 2 10 14 18 26 24 17
8 -3 -5 9 -9 27 -9 17 -1 45 -2 61 -3 15 -1 32 4 36 11 5 8 9 7 13 -5 5 -10 3
-14 -5 -9 -7 4 -8 3 -4 -4 5 -9 14 -7 33 5 l26 17 -13 -24 -13 -25 22 19 c18
16 25 17 48 7 24 -11 25 -11 12 5 -13 16 -12 16 9 5 12 -7 20 -17 16 -22 -3
-6 3 -5 14 2 12 7 18 17 15 23 -4 5 -1 6 6 2 7 -5 10 -15 7 -23 -3 -8 -1 -11
4 -8 6 3 10 12 10 20 0 8 5 17 12 21 6 4 8 3 4 -4 -3 -6 -2 -13 4 -17 19 -12
59 -15 65 -5 3 6 -1 7 -9 4 -9 -3 -16 -1 -16 4 0 6 10 9 22 7 12 -3 29 1 37 8
9 7 8 2 -3 -11 -11 -12 -16 -25 -13 -29 4 -3 7 -1 7 6 0 7 10 10 25 7 15 -3
23 -1 20 5 -4 5 -11 7 -16 4 -15 -10 -10 2 8 16 9 8 14 9 10 3 -4 -8 4 -12 26
-12 17 -1 45 -2 61 -3 15 -1 32 4 36 11 5 8 9 7 13 -5 5 -10 3 -14 -5 -9 -7 4
-8 3 -4 -4 5 -9 14 -7 33 5 l26 17 -13 -24 -13 -25 22 19 c18 16 25 17 48 7
24 -11 25 -11 12 5 -13 16 -12 16 9 5 12 -7 20 -17 16 -22 -3 -6 3 -5 14 2 12
7 18 17 15 23 -4 5 -1 6 6 2 7 -5 10 -15 7 -23 -3 -8 -1 -11 4 -8 6 3 10 12
10 20 0 8 5 17 12 21 6 4 8 3 4 -4 -3 -6 -2 -13 4 -17 19 -12 59 -15 65 -5 3
6 -1 7 -9 4 -9 -3 -16 -1 -16 4 0 6 10 9 22 7 12 -3 29 1 37 8 9 7 8 2 -3 -11
-11 -12 -16 -25 -13 -29 4 -3 7 -1 7 6 0 7 10 10 25 7 15 -3 23 -1 20 5 -4 5
-11 7 -16 4 -15 -10 -10 2 8 16 9 8 14 9 10 3 -4 -8 4 -12 26 -12 17 -1 45 -2
61 -3 15 -1 32 4 36 11 5 8 9 7 13 -5 5 -10 3 -14 -5 -9 -7 4 -8 3 -4 -4 5 -9
14 -7 33 5 l26 17 -13 -24 -13 -25 22 19 c18 16 25 17 48 7 24 -11 25 -11 12
5 -13 16 -12 16 9 5 12 -7 20 -17 16 -22 -3 -6 3 -5 14 2 12 7 18 17 15 23 -4
5 -1 6 6 2 7 -5 10 -15 7 -23 -3 -8 -1 -11 4 -8 6 3 10 12 10 20 0 8 5 17 12
21 6 4 8 3 4 -4 -3 -6 -2 -13 4 -17 19 -12 59 -15 65 -5 3 6 -1 7 -9 4 -9 -3
-16 -1 -16 4 0 6 10 9 22 7 12 -3 29 1 37 8 9 7 8 2 -3 -11 -11 -12 -16 -25
-13 -29 4 -3 7 -1 7 6 0 7 10 10 25 7 15 -3 23 -1 20 5 -4 5 -12 6 -18 2 -7
-4 -6 0 2 10 14 18 26 24 17 8 -3 -5 9 -9 27 -9 17 -1 45 -2 61 -3 15 -1 32 4
36 11 5 8 9 7 13 -5 5 -10 3 -14 -5 -9 -7 4 -8 3 -4 -4 5 -9 14 -7 33 5 l26
17 -13 -24 -13 -25 22 19 c18 16 25 17 48 7 24 -11 25 -11 12 5 -13 16 -12 16
9 5 12 -7 20 -17 16 -22 -3 -6 3 -5 14 2 12 7 18 17 15 23 -4 5 -1 6 6 2 7 -5
10 -15 7 -23 -3 -8 -1 -11 4 -8 6 3 10 12 10 20 0 8 5 17 12 21 6 4 8 3 4 -4
-3 -6 -2 -13 4 -17 19 -12 59 -15 65 -5 3 6 -1 7 -9 4 -9 -3 -16 -1 -16 4 0 6
10 9 22 7 12 -3 29 1 37 8 9 7 8 2 -3 -11 -11 -12 -16 -25 -13 -29 4 -3 7 -1
7 6 0 7 10 10 25 7 15 -3 23 -1 20 5 -4 5 -12 6 -18 2 -7 -4 -6 0 2 10 14 18
26 24 17 8 -3 -5 9 -9 27 -9 17 -1 45 -2 61 -3 15 -1 32 4 36 11 5 8 9 7 13
-5 5 -10 3 -14 -5 -9 -7 4 -8 3 -4 -4 5 -9 14 -7 33 5 l26 17 -13 -24 -13 -25
22 19 c18 16 25 17 48 7 24 -11 25 -11 12 5 -13 16 -12 16 9 5 12 -7 20 -17
16 -22 -3 -6 3 -5 14 2 12 7 18 17 15 23 -4 5 -1 6 6 2 7 -5 10 -15 7 -23 -3
-8 -1 -11 4 -8 6 3 10 12 10 20 0 8 4 16 9 20 6 3 8 -3 6 -15 -2 -11 1 -23 7
-26 7 -4 8 -2 4 5 -5 8 1 10 23 6 16 -3 33 -1 36 5 3 6 -1 7 -9 4 -9 -3 -16
-2 -16 4 0 6 13 8 30 6 20 -4 30 -1 30 8 0 8 5 6 11 -5 6 -9 13 -15 17 -13 4
3 9 -7 10 -20 1 -14 -2 -23 -6 -20 -10 6 -9 -50 0 -60 4 -4 6 3 3 14 -2 12 -1
24 3 26 4 2 7 -29 7 -69 0 -64 -2 -72 -16 -65 -13 7 -15 4 -14 -21 1 -16 -2
-32 -7 -35 -5 -3 -7 0 -6 8 4 16 -34 11 -44 -5 -6 -9 -8 -9 -8 0 0 7 8 17 18
22 9 6 12 11 5 11 -6 0 -18 -6 -25 -13 -15 -16 -42 -11 -32 5 4 7 2 8 -4 4 -7
-4 -12 -1 -13 6 0 9 -2 10 -5 1 -3 -7 -13 -9 -22 -6 -14 4 -14 3 -2 -5 8 -6
18 -8 22 -6 4 3 8 -2 8 -12 0 -12 -3 -14 -12 -6 -16 13 -88 13 -88 0 0 -5 -5
-6 -11 -2 -8 4 -7 9 2 15 12 7 12 10 0 21 -8 7 -11 8 -8 3 3 -6 -2 -19 -10
-30 -13 -16 -15 -17 -10 -3 4 10 2 18 -4 18 -6 0 -8 4 -5 8 2 4 -4 8 -15 8
-18 0 -18 -2 -5 -12 22 -15 20 -27 -1 -16 -10 5 -27 6 -38 2 -11 -4 -26 -5
-34 -2 -7 3 -17 -1 -22 -9 -5 -8 -9 -9 -9 -4 0 6 -11 12 -26 13 -17 1 -23 -2
-18 -10 4 -6 3 -8 -4 -5 -5 4 -8 17 -5 30 3 13 1 18 -4 11 -4 -6 -21 -10 -36
-9 -15 1 -30 -1 -32 -5 -3 -4 9 -6 25 -5 17 1 30 -1 30 -5 0 -13 -193 -2 -202
12 -6 9 -7 5 -3 -9 4 -14 2 -23 -4 -23 -6 0 -10 3 -10 8 1 4 0 16 -1 27 -2 17
-3 17 -10 -5 -5 -16 -8 -19 -9 -8 -1 9 -5 20 -11 23 -5 3 -7 0 -4 -9 7 -17
-22 -26 -53 -15 -17 6 -21 5 -16 -6 3 -8 0 -15 -6 -15 -6 0 -10 3 -10 8 1 4 0
16 -1 27 -2 17 -3 17 -10 -5 -5 -16 -8 -19 -9 -8 -1 9 -5 20 -11 23 -6 3 -7
-1 -4 -9 6 -16 -10 -21 -45 -16 -8 1 -18 -4 -23 -12 -8 -10 -9 -10 -5 2 2 8
-2 21 -10 29 -13 12 -14 11 -8 -7 5 -18 3 -21 -11 -15 -13 5 -15 3 -9 -7 6
-10 4 -11 -6 -4 -20 12 -229 15 -229 3 0 -6 -5 -7 -11 -3 -8 4 -7 9 2 15 12 7
12 10 0 21 -8 7 -11 8 -8 3 3 -6 -2 -19 -10 -30 -13 -16 -15 -17 -10 -2 4 9 2
17 -4 17 -6 0 -8 4 -5 8 2 4 -4 8 -15 8 -18 0 -18 -2 -5 -12 22 -15 20 -27 -1
-16 -10 5 -27 6 -38 2 -11 -4 -26 -5 -34 -2 -7 3 -17 -1 -22 -9 -5 -8 -9 -9
-9 -4 0 6 -11 12 -26 13 -17 1 -23 -2 -18 -10 4 -6 3 -8 -4 -5 -5 4 -8 17 -5
30 3 13 1 18 -4 11 -4 -6 -21 -10 -36 -9 -15 1 -30 -1 -32 -5 -3 -4 9 -6 25
-5 17 1 30 -1 30 -5 0 -13 -193 -2 -202 12 -6 9 -7 5 -3 -9 4 -14 2 -23 -4
-23 -6 0 -10 3 -10 7 1 5 0 17 -1 28 -2 17 -3 17 -10 -5 -5 -16 -8 -19 -9 -8
-1 9 -5 20 -11 23 -5 3 -7 0 -4 -9 7 -17 -22 -26 -53 -15 -17 6 -21 5 -16 -6
3 -8 0 -15 -6 -15 -6 0 -10 3 -10 7 1 5 0 17 -1 28 -2 17 -3 17 -10 -5 -5 -16
-8 -19 -9 -8 -1 9 -5 20 -11 23 -6 3 -7 -1 -4 -9 6 -16 -10 -21 -45 -16 -8 1
-18 -4 -23 -12 -8 -10 -9 -10 -5 2 2 8 -2 21 -10 29 -13 12 -14 11 -8 -7 5
-18 3 -21 -11 -15 -13 5 -15 3 -9 -7 6 -10 4 -11 -6 -4 -20 12 -229 15 -229 3
0 -6 -5 -7 -11 -3 -8 4 -7 9 2 15 12 7 12 10 0 21 -8 7 -11 8 -8 3 3 -6 -2
-19 -10 -30 -13 -16 -15 -17 -10 -2 4 9 2 17 -4 17 -6 0 -8 4 -5 8 2 4 -4 8
-15 8 -18 0 -18 -2 -5 -12 22 -15 20 -27 -1 -16 -10 5 -27 6 -38 2 -11 -4 -26
-5 -34 -2 -7 3 -17 -1 -22 -9 -5 -8 -9 -9 -9 -4 0 6 -11 12 -26 13 -17 1 -23
-2 -18 -10 4 -6 3 -8 -4 -5 -5 4 -8 17 -5 30 3 13 1 18 -4 11 -4 -6 -21 -10
-36 -9 -15 1 -30 -1 -32 -5 -3 -4 9 -6 25 -5 17 1 30 -1 30 -5 0 -13 -193 -2
-202 12 -6 9 -7 5 -3 -9 4 -14 2 -23 -4 -23 -6 0 -10 3 -10 7 1 5 0 17 -1 28
-2 17 -3 17 -10 -5 -5 -16 -8 -19 -9 -8 -1 9 -5 20 -11 23 -5 3 -7 0 -4 -9 7
-17 -22 -26 -53 -15 -17 6 -21 5 -16 -6 3 -8 0 -15 -6 -15 -6 0 -10 3 -10 8 1
4 0 16 -1 27 -2 17 -3 17 -10 -5 -5 -16 -8 -19 -9 -8 -1 9 -5 20 -11 23 -6 3
-7 -1 -4 -9 6 -16 -10 -21 -45 -16 -8 1 -18 -4 -23 -12 -8 -10 -9 -10 -5 2 2
8 -2 21 -10 29 -13 12 -14 11 -8 -7 5 -18 3 -21 -11 -15 -13 5 -15 3 -9 -7 6
-10 4 -11 -6 -4 -20 12 -229 15 -229 3 0 -6 -5 -7 -11 -3 -8 4 -7 9 2 15 12 7
12 10 0 21 -8 7 -11 8 -8 3 3 -6 -2 -19 -10 -30 -13 -16 -15 -17 -10 -3 4 10
2 18 -4 18 -6 0 -8 4 -5 8 2 4 -4 8 -15 8 -18 0 -18 -2 -5 -12 22 -15 20 -27
-1 -16 -10 5 -27 6 -38 2 -11 -4 -26 -5 -34 -2 -7 3 -17 -1 -22 -9 -5 -8 -9
-9 -9 -4 0 6 -11 12 -26 13 -17 1 -23 -2 -18 -10 4 -6 3 -8 -4 -5 -5 4 -8 17
-5 30 3 13 1 18 -4 11 -4 -6 -21 -10 -36 -9 -15 1 -30 -1 -32 -5 -3 -4 9 -6
25 -5 17 1 30 -1 30 -5 0 -13 -193 -2 -202 12 -6 9 -7 5 -3 -9 4 -14 2 -23 -4
-23 -6 0 -10 3 -10 8 1 4 0 16 -1 27 -2 17 -3 17 -10 -5 -5 -16 -8 -19 -9 -8
-1 9 -5 20 -11 23 -5 3 -7 0 -4 -9 7 -17 -22 -26 -53 -15 -17 6 -21 5 -16 -6
3 -8 0 -15 -6 -15 -6 0 -10 3 -10 8 1 4 0 16 -1 27 -2 17 -3 17 -10 -5 -5 -16
-8 -19 -9 -8 -1 9 -5 20 -11 23 -6 3 -7 -1 -4 -9 6 -16 -10 -21 -45 -16 -8 1
-18 -4 -23 -12 -8 -10 -9 -10 -5 2 2 8 -2 21 -10 29 -13 12 -14 11 -8 -7 5
-18 3 -21 -11 -15 -13 5 -15 3 -9 -7 6 -10 4 -11 -6 -4 -20 12 -229 15 -229 3
0 -6 -5 -7 -11 -3 -8 4 -7 9 2 15 12 7 12 10 0 21 -8 7 -11 8 -8 3 3 -6 -2
-19 -10 -30 -13 -16 -15 -17 -10 -2 4 9 2 17 -4 17 -6 0 -8 4 -5 8 2 4 -4 8
-15 8 -18 0 -18 -2 -5 -12 22 -15 20 -27 -1 -16 -10 5 -27 6 -38 2 -11 -4 -26
-5 -34 -2 -7 3 -17 -1 -22 -9 -5 -8 -9 -9 -9 -4 0 6 -11 12 -26 13 -17 1 -23
-2 -18 -10 4 -6 3 -8 -4 -5 -5 4 -8 17 -5 30 3 13 1 18 -4 11 -4 -6 -21 -10
-36 -9 -15 1 -30 -1 -32 -5 -3 -4 9 -6 25 -5 17 1 30 -1 30 -5 0 -13 -193 -2
-202 12 -6 9 -7 5 -3 -9 4 -14 2 -23 -4 -23 -6 0 -10 3 -10 8 1 4 0 16 -1 27
-2 17 -3 17 -10 -5 -5 -16 -8 -19 -9 -8 -1 9 -5 20 -11 23 -5 3 -7 0 -4 -9 7
-17 -22 -26 -53 -15 -17 6 -21 5 -16 -6 3 -8 0 -15 -6 -15 -6 0 -10 3 -10 8 1
4 0 16 -1 27 -2 17 -3 17 -10 -5 -5 -16 -8 -19 -9 -8 -1 9 -5 20 -11 23 -6 3
-7 -1 -4 -9 6 -16 -10 -21 -45 -16 -8 1 -18 -4 -23 -12 -8 -10 -9 -10 -5 2 2
8 -2 21 -10 29 -13 12 -14 11 -8 -7 5 -18 3 -21 -11 -15 -13 5 -15 3 -9 -7 6
-10 4 -11 -6 -4 -8 5 -39 10 -69 10 -85 2 -92 3 -85 13 3 6 -4 8 -15 6 -13 -3
-23 2 -27 13 -6 13 -9 10 -19 -13 -8 -19 -13 -23 -14 -12 0 9 -4 17 -8 17 -4
0 -8 16 -9 35 0 19 4 35 9 35 5 0 6 -4 3 -10 -10 -16 1 -11 16 7 8 9 9 14 4
11 -6 -4 -17 -3 -25 3 -10 6 -11 9 -2 9 6 0 12 5 12 11 0 5 -4 7 -10 4 -5 -3
-10 -1 -10 4 0 6 6 11 13 11 8 0 9 2 1 8 -10 6 -11 27 -5 65 0 4 7 7 14 5 23
-4 58 13 51 25 -4 7 4 3 17 -9 13 -12 31 -24 39 -28 8 -4 4 1 -9 12 -20 16
-23 42 -5 42 3 0 3 -4 -1 -9z m422 -13 c-3 -8 -6 -5 -6 6 -1 11 2 17 5 13 3
-3 4 -12 1 -19z m480 0 c-3 -8 -6 -5 -6 6 -1 11 2 17 5 13 3 -3 4 -12 1 -19z
m480 0 c-3 -8 -6 -5 -6 6 -1 11 2 17 5 13 3 -3 4 -12 1 -19z m480 0 c-3 -8 -6
-5 -6 6 -1 11 2 17 5 13 3 -3 4 -12 1 -19z m480 0 c-3 -8 -6 -5 -6 6 -1 11 2
17 5 13 3 -3 4 -12 1 -19z m480 0 c-3 -8 -6 -5 -6 6 -1 11 2 17 5 13 3 -3 4
-12 1 -19z m480 0 c-3 -8 -6 -5 -6 6 -1 11 2 17 5 13 3 -3 4 -12 1 -19z m480
0 c-3 -8 -6 -5 -6 6 -1 11 2 17 5 13 3 -3 4 -12 1 -19z m480 0 c-3 -8 -6 -5
-6 6 -1 11 2 17 5 13 3 -3 4 -12 1 -19z m480 0 c-3 -8 -6 -5 -6 6 -1 11 2 17
5 13 3 -3 4 -12 1 -19z m-4784 -231 c4 3 7 -2 7 -12 0 -13 -3 -15 -13 -6 -8 6
-16 9 -19 6 -2 -3 -5 2 -5 10 0 10 4 12 12 5 7 -5 15 -7 18 -3z m4987 3 c0 -5
-2 -10 -4 -10 -3 0 -8 5 -11 10 -3 6 -1 10 4 10 6 0 11 -4 11 -10z"/>
<path d="M1875 5050 c-3 -5 -1 -10 4 -10 6 0 11 5 11 10 0 6 -2 10 -4 10 -3 0
-8 -4 -11 -10z"/>
<path d="M1990 5050 c0 -5 5 -10 10 -10 6 0 10 5 10 10 0 6 -4 10 -10 10 -5 0
-10 -4 -10 -10z"/>
<path d="M2243 5053 c-7 -2 -13 -9 -13 -15 0 -6 7 -5 16 3 13 10 17 10 26 -2
8 -12 9 -12 6 0 -5 17 -17 22 -35 14z"/>
<path d="M2310 5050 c0 -5 5 -10 10 -10 6 0 10 5 10 10 0 6 -4 10 -10 10 -5 0
-10 -4 -10 -10z"/>
<path d="M2835 5050 c-3 -5 -1 -10 4 -10 6 0 11 5 11 10 0 6 -2 10 -4 10 -3 0
-8 -4 -11 -10z"/>
<path d="M3795 5050 c-3 -5 -1 -10 4 -10 6 0 11 5 11 10 0 6 -2 10 -4 10 -3 0
-8 -4 -11 -10z"/>
<path d="M3910 5050 c0 -5 5 -10 10 -10 6 0 10 5 10 10 0 6 -4 10 -10 10 -5 0
-10 -4 -10 -10z"/>
<path d="M2522 4906 c-5 -6 -8 -133 -8 -283 1 -170 -3 -269 -9 -265 -13 8 -50
40 -100 87 -24 22 -69 63 -101 90 -31 28 -71 64 -88 80 -17 17 -44 40 -60 53
-28 21 -30 22 -46 5 -9 -10 -33 -33 -54 -51 -38 -33 -38 -33 -20 -55 11 -12
23 -25 27 -28 15 -11 106 -93 164 -146 31 -29 58 -53 61 -53 3 0 17 -12 32
-27 41 -42 114 -108 140 -126 l23 -16 -39 -38 c-22 -21 -73 -67 -114 -103 -41
-36 -88 -78 -106 -95 -17 -16 -64 -59 -104 -95 -101 -90 -100 -89 -94 -105 4
-8 9 -15 13 -15 4 0 22 -16 41 -35 19 -19 41 -35 49 -35 12 0 114 86 197 165
11 11 49 45 84 75 34 30 71 64 81 74 23 24 21 53 23 -279 l1 -270 35 -1 c44 0
55 5 106 53 53 48 171 155 204 183 29 25 176 158 197 179 13 13 9 20 -30 55
-102 94 -140 126 -148 126 -5 0 -9 7 -9 15 0 8 -3 15 -7 15 -5 0 -39 29 -78
64 l-70 63 30 25 c17 14 49 43 72 64 23 22 69 64 103 94 34 30 83 74 108 96
l46 41 -38 34 c-21 19 -51 45 -65 59 -15 14 -48 43 -72 65 -76 68 -222 199
-239 215 -50 46 -64 54 -95 55 -19 1 -39 -3 -43 -9z m246 -354 l71 -64 -51
-46 c-29 -26 -62 -57 -75 -69 -12 -12 -24 -19 -27 -15 -7 13 -4 263 4 260 4
-2 39 -31 78 -66z m20 -662 c23 -21 42 -42 42 -47 0 -5 -25 -32 -56 -59 -30
-27 -62 -55 -69 -61 -7 -7 -15 -13 -18 -13 -2 0 -4 61 -5 135 l-1 136 32 -27
c18 -15 51 -44 75 -64z"/>
<path d="M3334 4508 c-27 -29 -43 -53 -37 -55 7 -3 9 -11 6 -19 -3 -8 0 -14 6
-14 6 0 11 -6 11 -12 0 -7 7 -26 15 -42 9 -16 13 -36 11 -43 -3 -7 -2 -13 3
-13 4 0 8 -6 9 -12 0 -7 3 -24 6 -38 8 -31 9 -177 2 -188 -3 -5 -8 -22 -11
-38 -9 -44 -7 -37 -48 -135 l-15 -36 45 -42 46 -42 23 22 c13 12 21 26 18 30
-3 5 -1 9 4 9 19 0 88 212 76 232 -3 4 -2 8 3 8 17 0 4 219 -16 274 -5 11 -10
26 -11 31 -11 45 -59 141 -80 160 -15 14 -21 10 -66 -37z"/>
<path d="M3104 4308 c-11 -13 -51 -50 -88 -83 l-68 -59 56 -51 c99 -90 129
-115 136 -115 10 0 32 89 25 100 -3 5 -1 11 3 14 21 13 -10 205 -34 213 -6 2
-19 -7 -30 -19z"/>
<path d="M3701 3243 c-1 -7 6 -16 15 -21 15 -8 15 -10 0 -15 -10 -4 -15 -3
-12 2 3 4 -7 14 -22 20 -26 12 -26 12 -9 -7 14 -15 15 -22 6 -28 -7 -4 -10 -3
-5 4 10 17 -13 25 -31 10 -10 -8 -14 -8 -10 -1 4 6 3 14 -2 17 -5 3 -12 -4
-15 -17 -6 -22 -7 -22 -21 -3 -15 19 -15 19 -15 -5 0 -19 -2 -21 -10 -9 -6 10
-10 11 -10 3 0 -7 -5 -13 -11 -13 -5 0 -7 6 -3 13 5 8 2 8 -9 -2 -18 -14 -23
-26 -8 -16 5 3 12 1 16 -5 3 -5 -3 -10 -15 -10 -13 0 -19 -4 -14 -11 4 -8 -1
-9 -17 -5 -19 6 -21 5 -7 -3 13 -9 14 -15 5 -36 -7 -13 -18 -27 -25 -30 -8 -3
-4 9 8 28 l22 32 -26 -30 c-17 -19 -22 -33 -16 -40 6 -7 7 -14 5 -17 -11 -11
-24 -68 -14 -63 12 8 12 -2 -1 -25 -9 -16 -8 -18 6 -13 11 4 15 2 11 -4 -4 -6
-4 -18 -1 -27 5 -14 9 -14 23 -4 11 8 10 5 -3 -10 -12 -13 -14 -22 -7 -22 7 0
9 -4 6 -10 -3 -5 0 -7 8 -4 8 3 14 -2 15 -11 1 -8 3 -21 4 -28 1 -8 7 -14 15
-14 9 0 10 4 1 14 -8 11 -7 12 6 7 9 -3 16 -14 16 -24 0 -13 7 -17 26 -14 21
2 23 0 13 -12 -10 -12 -9 -13 6 -8 11 5 16 4 12 -3 -3 -5 0 -10 8 -10 8 0 11
5 8 11 -4 6 4 2 17 -9 13 -11 20 -15 17 -8 -4 6 -3 14 3 18 5 3 10 1 10 -4 0
-15 27 -14 33 2 3 6 6 3 6 -8 1 -17 3 -17 11 -5 5 8 10 11 10 5 0 -5 8 1 16
15 8 14 13 17 10 7 -3 -10 -2 -16 3 -12 5 3 12 -1 15 -7 3 -7 3 1 1 17 -4 28
-3 29 10 11 8 -11 16 -17 16 -13 1 4 2 13 3 20 1 6 10 10 21 9 17 -3 17 -2 4
14 -13 16 -12 16 9 5 23 -12 23 -12 11 11 -11 20 -11 22 3 10 20 -16 32 -3 37
39 0 5 5 7 11 4 6 -4 7 1 3 11 -4 11 -8 13 -11 6 -2 -7 -8 -12 -14 -12 -6 0
-4 8 5 18 13 15 14 21 4 32 -9 10 -9 11 0 6 18 -10 38 5 39 31 1 13 -3 20 -7
17 -5 -3 -7 -10 -4 -15 10 -15 -2 -10 -16 8 -10 11 -10 14 -1 9 8 -5 12 1 12
18 0 34 -3 41 -16 40 -7 -1 -11 11 -10 27 1 15 -2 26 -6 23 -4 -3 -8 2 -8 10
0 9 -5 16 -11 16 -5 0 -7 -6 -3 -12 5 -9 2 -9 -9 1 -18 15 -23 26 -7 16 6 -3
10 2 10 11 0 10 -3 15 -6 11 -4 -3 -13 1 -21 9 -9 8 -21 13 -29 10 -7 -3 -18
3 -26 12 -11 15 -11 15 3 5 13 -10 16 -10 16 1 0 19 -27 13 -43 -9 -17 -23
-18 -12 -3 17 8 15 8 19 0 14 -6 -4 -11 -2 -11 4 0 6 -4 9 -9 6 -5 -4 -12 0
-14 6 -4 10 -6 10 -6 1z m204 -193 c-3 -5 -12 -10 -18 -10 -7 0 -6 4 3 10 19
12 23 12 15 0z m-25 -184 c0 -3 -4 -8 -10 -11 -5 -3 -10 -1 -10 4 0 6 5 11 10
11 6 0 10 -2 10 -4z"/>
<path d="M3910 2929 c0 -5 5 -7 10 -4 6 3 10 8 10 11 0 2 -4 4 -10 4 -5 0 -10
-5 -10 -11z"/>
<path d="M500 470 c0 -5 5 -10 11 -10 5 0 7 5 4 10 -3 6 -8 10 -11 10 -2 0 -4
-4 -4 -10z"/>
<path d="M533 473 c4 -3 1 -13 -6 -22 -11 -14 -10 -14 5 -2 16 12 16 31 1 31
-4 0 -3 -3 0 -7z"/>
<path d="M980 470 c0 -5 5 -10 11 -10 5 0 7 5 4 10 -3 6 -8 10 -11 10 -2 0 -4
-4 -4 -10z"/>
<path d="M1013 473 c4 -3 1 -13 -6 -22 -11 -14 -10 -14 5 -2 16 12 16 31 1 31
-4 0 -3 -3 0 -7z"/>
<path d="M1460 470 c0 -5 5 -10 11 -10 5 0 7 5 4 10 -3 6 -8 10 -11 10 -2 0
-4 -4 -4 -10z"/>
<path d="M1493 473 c4 -3 1 -13 -6 -22 -11 -14 -10 -14 5 -2 16 12 16 31 1 31
-4 0 -3 -3 0 -7z"/>
<path d="M1940 470 c0 -5 5 -10 11 -10 5 0 7 5 4 10 -3 6 -8 10 -11 10 -2 0
-4 -4 -4 -10z"/>
<path d="M1973 473 c4 -3 1 -13 -6 -22 -11 -14 -10 -14 5 -2 16 12 16 31 1 31
-4 0 -3 -3 0 -7z"/>
<path d="M2420 470 c0 -5 5 -10 11 -10 5 0 7 5 4 10 -3 6 -8 10 -11 10 -2 0
-4 -4 -4 -10z"/>
<path d="M2453 473 c4 -3 1 -13 -6 -22 -11 -14 -10 -14 5 -2 16 12 16 31 1 31
-4 0 -3 -3 0 -7z"/>
<path d="M2900 470 c0 -5 5 -10 11 -10 5 0 7 5 4 10 -3 6 -8 10 -11 10 -2 0
-4 -4 -4 -10z"/>
<path d="M2933 473 c4 -3 1 -13 -6 -22 -11 -14 -10 -14 5 -2 16 12 16 31 1 31
-4 0 -3 -3 0 -7z"/>
<path d="M3380 470 c0 -5 5 -10 11 -10 5 0 7 5 4 10 -3 6 -8 10 -11 10 -2 0
-4 -4 -4 -10z"/>
<path d="M3413 473 c4 -3 1 -13 -6 -22 -11 -14 -10 -14 5 -2 16 12 16 31 1 31
-4 0 -3 -3 0 -7z"/>
<path d="M3860 470 c0 -5 5 -10 11 -10 5 0 7 5 4 10 -3 6 -8 10 -11 10 -2 0
-4 -4 -4 -10z"/>
<path d="M3893 473 c4 -3 1 -13 -6 -22 -11 -14 -10 -14 5 -2 16 12 16 31 1 31
-4 0 -3 -3 0 -7z"/>
<path d="M4340 470 c0 -5 5 -10 11 -10 5 0 7 5 4 10 -3 6 -8 10 -11 10 -2 0
-4 -4 -4 -10z"/>
<path d="M4373 473 c4 -3 1 -13 -6 -22 -11 -14 -10 -14 5 -2 16 12 16 31 1 31
-4 0 -3 -3 0 -7z"/>
<path d="M4820 470 c0 -5 5 -10 11 -10 5 0 7 5 4 10 -3 6 -8 10 -11 10 -2 0
-4 -4 -4 -10z"/>
<path d="M4853 473 c4 -3 1 -13 -6 -22 -11 -14 -10 -14 5 -2 16 12 16 31 1 31
-4 0 -3 -3 0 -7z"/>
<path d="M5242 471 c-10 -6 -10 -10 3 -21 13 -11 14 -10 8 6 -6 17 -5 18 13 4
18 -14 18 -14 5 3 -7 9 -14 17 -15 17 0 0 -7 -4 -14 -9z"/>
<path d="M820 456 c0 -2 7 -7 16 -10 8 -3 12 -2 9 4 -6 10 -25 14 -25 6z"/>
<path d="M1300 456 c0 -2 7 -7 16 -10 8 -3 12 -2 9 4 -6 10 -25 14 -25 6z"/>
<path d="M1780 456 c0 -2 7 -7 16 -10 8 -3 12 -2 9 4 -6 10 -25 14 -25 6z"/>
<path d="M2260 456 c0 -2 7 -7 16 -10 8 -3 12 -2 9 4 -6 10 -25 14 -25 6z"/>
<path d="M2740 456 c0 -2 7 -7 16 -10 8 -3 12 -2 9 4 -6 10 -25 14 -25 6z"/>
<path d="M3220 456 c0 -2 7 -7 16 -10 8 -3 12 -2 9 4 -6 10 -25 14 -25 6z"/>
<path d="M3700 456 c0 -2 7 -7 16 -10 8 -3 12 -2 9 4 -6 10 -25 14 -25 6z"/>
<path d="M4180 456 c0 -2 7 -7 16 -10 8 -3 12 -2 9 4 -6 10 -25 14 -25 6z"/>
<path d="M4660 456 c0 -2 7 -7 16 -10 8 -3 12 -2 9 4 -6 10 -25 14 -25 6z"/>
<path d="M246 442 c-3 -4 4 -9 15 -9 23 -2 25 3 4 10 -8 4 -16 3 -19 -1z"/>
<path d="M245 410 c-3 -5 -1 -10 4 -10 6 0 11 5 11 10 0 6 -2 10 -4 10 -3 0
-8 -4 -11 -10z"/>
<path d="M5273 340 c1 -21 10 -18 13 5 1 8 -2 15 -6 15 -5 0 -8 -9 -7 -20z"/>
<path d="M246 292 c-2 -4 -1 -14 4 -22 7 -11 9 -9 7 8 -1 24 -3 26 -11 14z"/>
<path d="M5185 270 c-3 -6 1 -7 9 -4 18 7 21 14 7 14 -6 0 -13 -4 -16 -10z"/>
<path d="M530 263 c0 -1 8 -7 18 -12 13 -7 19 -6 19 2 0 7 -9 13 -19 13 -10 0
-18 -1 -18 -3z"/>
<path d="M650 263 c0 -1 8 -7 18 -12 13 -7 19 -6 19 2 0 7 -9 13 -19 13 -10 0
-18 -1 -18 -3z"/>
<path d="M1017 255 c5 -15 30 -15 30 0 0 6 -8 11 -18 11 -9 0 -15 -5 -12 -11z"/>
<path d="M1076 257 c3 -10 9 -15 12 -12 3 3 0 11 -7 18 -10 9 -11 8 -5 -6z"/>
<path d="M1490 263 c0 -1 8 -7 18 -12 13 -7 19 -6 19 2 0 7 -9 13 -19 13 -10
0 -18 -1 -18 -3z"/>
<path d="M1610 263 c0 -1 8 -7 18 -12 13 -7 19 -6 19 2 0 7 -9 13 -19 13 -10
0 -18 -1 -18 -3z"/>
<path d="M1977 255 c5 -15 30 -15 30 0 0 6 -8 11 -18 11 -9 0 -15 -5 -12 -11z"/>
<path d="M2036 257 c3 -10 9 -15 12 -12 3 3 0 11 -7 18 -10 9 -11 8 -5 -6z"/>
<path d="M2450 263 c0 -1 8 -7 18 -12 13 -7 19 -6 19 2 0 7 -9 13 -19 13 -10
0 -18 -1 -18 -3z"/>
<path d="M2570 263 c0 -1 8 -7 18 -12 13 -7 19 -6 19 2 0 7 -9 13 -19 13 -10
0 -18 -1 -18 -3z"/>
<path d="M2937 255 c5 -15 30 -15 30 0 0 6 -8 11 -18 11 -9 0 -15 -5 -12 -11z"/>
<path d="M2996 257 c3 -10 9 -15 12 -12 3 3 0 11 -7 18 -10 9 -11 8 -5 -6z"/>
<path d="M3410 263 c0 -1 8 -7 18 -12 13 -7 19 -6 19 2 0 7 -9 13 -19 13 -10
0 -18 -1 -18 -3z"/>
<path d="M3530 263 c0 -1 8 -7 18 -12 13 -7 19 -6 19 2 0 7 -9 13 -19 13 -10
0 -18 -1 -18 -3z"/>
<path d="M3897 255 c5 -15 30 -15 30 0 0 6 -8 11 -18 11 -9 0 -15 -5 -12 -11z"/>
<path d="M3956 257 c3 -10 9 -15 12 -12 3 3 0 11 -7 18 -10 9 -11 8 -5 -6z"/>
<path d="M4370 263 c0 -1 8 -7 18 -12 13 -7 19 -6 19 2 0 7 -9 13 -19 13 -10
0 -18 -1 -18 -3z"/>
<path d="M4490 263 c0 -1 8 -7 18 -12 13 -7 19 -6 19 2 0 7 -9 13 -19 13 -10
0 -18 -1 -18 -3z"/>
<path d="M4857 255 c5 -15 30 -15 30 0 0 6 -8 11 -18 11 -9 0 -15 -5 -12 -11z"/>
<path d="M4916 257 c3 -10 9 -15 12 -12 3 3 0 11 -7 18 -10 9 -11 8 -5 -6z"/>
<path d="M370 250 c0 -4 7 -7 15 -6 23 3 26 12 5 13 -11 1 -20 -2 -20 -7z"/>
<path d="M435 250 c-5 -8 42 -7 49 1 3 3 -6 5 -20 5 -14 0 -27 -3 -29 -6z"/>
<path d="M825 251 c3 -3 17 -6 31 -7 13 0 22 2 19 5 -3 3 -17 6 -31 7 -13 0
-22 -2 -19 -5z"/>
<path d="M1305 251 c3 -3 17 -6 31 -7 13 0 22 2 19 5 -3 3 -17 6 -31 7 -13 0
-22 -2 -19 -5z"/>
<path d="M1395 250 c-5 -8 42 -7 49 1 3 3 -6 5 -20 5 -14 0 -27 -3 -29 -6z"/>
<path d="M1785 251 c3 -3 17 -6 31 -7 13 0 22 2 19 5 -3 3 -17 6 -31 7 -13 0
-22 -2 -19 -5z"/>
<path d="M2265 251 c3 -3 17 -6 31 -7 13 0 22 2 19 5 -3 3 -17 6 -31 7 -13 0
-22 -2 -19 -5z"/>
<path d="M2355 250 c-5 -8 42 -7 49 1 3 3 -6 5 -20 5 -14 0 -27 -3 -29 -6z"/>
<path d="M2745 251 c3 -3 17 -6 31 -7 13 0 22 2 19 5 -3 3 -17 6 -31 7 -13 0
-22 -2 -19 -5z"/>
<path d="M3225 251 c3 -3 17 -6 31 -7 13 0 22 2 19 5 -3 3 -17 6 -31 7 -13 0
-22 -2 -19 -5z"/>
<path d="M3315 250 c-5 -8 42 -7 49 1 3 3 -6 5 -20 5 -14 0 -27 -3 -29 -6z"/>
<path d="M3705 251 c3 -3 17 -6 31 -7 13 0 22 2 19 5 -3 3 -17 6 -31 7 -13 0
-22 -2 -19 -5z"/>
<path d="M4185 251 c3 -3 17 -6 31 -7 13 0 22 2 19 5 -3 3 -17 6 -31 7 -13 0
-22 -2 -19 -5z"/>
<path d="M4275 250 c-5 -8 42 -7 49 1 3 3 -6 5 -20 5 -14 0 -27 -3 -29 -6z"/>
<path d="M4665 251 c3 -3 17 -6 31 -7 13 0 22 2 19 5 -3 3 -17 6 -31 7 -13 0
-22 -2 -19 -5z"/>
<path d="M915 4051 c-3 -5 -2 -12 3 -15 5 -3 9 1 9 9 0 17 -3 19 -12 6z"/>
<path d="M915 3970 c-3 -5 -1 -10 4 -10 6 0 11 5 11 10 0 6 -2 10 -4 10 -3 0
-8 -4 -11 -10z"/>
<path d="M915 2131 c-3 -5 -2 -12 3 -15 5 -3 9 1 9 9 0 17 -3 19 -12 6z"/>
<path d="M915 2050 c-3 -5 -1 -10 4 -10 6 0 11 5 11 10 0 6 -2 10 -4 10 -3 0
-8 -4 -11 -10z"/>
<path d="M917 945 c3 -8 9 -12 14 -9 12 7 11 11 -5 17 -10 4 -13 1 -9 -8z"/>
</g>
</svg>
